<svg xmlns="http://www.w3.org/2000/svg" xmlns:xlink="http://www.w3.org/1999/xlink" width="500" zoomAndPan="magnify" viewBox="0 0 375 374.999991" height="500" preserveAspectRatio="xMidYMid meet" version="1.0"><defs><g/><clipPath id="7080eb448d"><path d="M 107 24.535156 L 261 24.535156 L 261 212 L 107 212 Z M 107 24.535156 " clip-rule="nonzero"/></clipPath><clipPath id="9c6136d073"><path d="M 57.789062 162 L 309.789062 162 L 309.789062 227.785156 L 57.789062 227.785156 Z M 57.789062 162 " clip-rule="nonzero"/></clipPath></defs><path fill="#ffffff" d="M 185.335938 83.429688 C 185.140625 83.574219 184.890625 83.75 184.765625 83.824219 C 184.605469 83.910156 184.605469 84.105469 184.765625 84.625 C 184.964844 85.246094 185.015625 85.28125 185.730469 85.28125 C 186.351562 85.28125 186.496094 85.210938 186.496094 84.960938 C 186.496094 84.785156 186.621094 84.480469 186.761719 84.269531 C 187.011719 83.910156 186.992188 83.875 186.496094 83.699219 C 186.191406 83.609375 185.960938 83.429688 185.960938 83.34375 C 185.960938 83.074219 185.765625 83.109375 185.335938 83.429688 Z M 185.335938 83.429688 " fill-opacity="1" fill-rule="evenodd"/><path fill="#ffffff" d="M 243.964844 62.613281 C 244.292969 62.8125 244.617188 63.011719 244.9375 63.214844 C 248.847656 65.65625 252.601562 68.246094 256.328125 70.855469 C 271.027344 81.148438 283.273438 91.707031 287.34375 107.265625 C 288.886719 113.15625 288.914062 117.867188 287.621094 123.804688 C 286.246094 130.109375 283.640625 136.019531 280.394531 141.867188 C 276.460938 148.949219 271.722656 155.914062 266.871094 162.699219 C 265.199219 162.953125 263.535156 163.230469 261.871094 163.523438 L 261.84375 159.675781 L 261.988281 159.460938 C 262.636719 158.5 263.066406 157.484375 262.773438 156.316406 C 262.695312 155.953125 262.617188 155.585938 262.558594 155.21875 C 262.242188 153.257812 261.039062 151.726562 259.6875 150.347656 C 259.546875 150.203125 259.328125 149.984375 259.164062 149.789062 C 259.074219 148.757812 258.734375 147.535156 258.476562 146.609375 C 258.183594 145.558594 257.65625 144.710938 256.765625 144.316406 C 257.675781 142.648438 258.539062 140.972656 259.34375 139.292969 C 261.53125 134.71875 263.148438 130.199219 263.785156 125.328125 C 263.910156 124.375 263.996094 123.417969 264.054688 122.460938 C 264.378906 117.117188 263.933594 111.710938 261.230469 106.738281 C 259.234375 103.058594 257.136719 99.253906 254.34375 95.898438 C 250.816406 91.664062 245.679688 87.65625 240.847656 84.011719 C 240.847656 79.636719 240.847656 75.261719 240.882812 70.890625 C 240.894531 69.726562 240.902344 68.5625 240.941406 67.398438 C 240.953125 67.125 240.953125 66.785156 240.980469 66.480469 C 241.261719 66.109375 241.679688 65.679688 241.972656 65.390625 C 242.851562 64.53125 243.625 63.75 243.96875 62.609375 Z M 243.964844 62.613281 " fill-opacity="1" fill-rule="evenodd"/><path fill="#ffffff" d="M 143.289062 51.433594 C 153.207031 46.214844 163.429688 41.164062 173.835938 36.796875 C 175.859375 35.949219 181.140625 33.644531 183.375 33.644531 C 187.105469 33.644531 196.085938 37.835938 199.347656 39.316406 C 208.140625 43.308594 216.769531 47.667969 225.179688 52.136719 C 226.03125 52.589844 226.886719 53.042969 227.742188 53.496094 C 227.730469 53.75 227.722656 53.996094 227.71875 54.203125 L 227.703125 55.058594 C 227.148438 55.21875 226.648438 55.492188 226.265625 56.070312 C 225.894531 56.632812 225.792969 57.3125 225.695312 57.976562 C 225.695312 58 225.691406 58.015625 225.6875 58.039062 C 225.6875 58.042969 225.6875 58.050781 225.6875 58.054688 C 225.644531 58.09375 225.601562 58.132812 225.566406 58.167969 C 225.550781 58.179688 225.542969 58.1875 225.527344 58.203125 C 224.882812 58.816406 224.183594 59.714844 223.976562 60.582031 C 223.464844 62.6875 224.945312 64.769531 226.648438 65.84375 C 226.863281 65.976562 227.171875 66.199219 227.355469 66.382812 C 227.53125 67.050781 227.511719 68.996094 227.519531 69.621094 C 227.53125 71.253906 227.527344 72.894531 227.515625 74.535156 C 225.109375 72.957031 222.675781 71.410156 220.25 69.902344 C 214.140625 66.097656 207.75 62.296875 201.210938 58.960938 C 197.285156 56.957031 193.339844 54.976562 189.402344 52.988281 C 188.628906 52.597656 184.246094 50.378906 183.296875 50.476562 C 183.203125 50.488281 183.085938 50.515625 182.984375 50.546875 C 182.136719 50.886719 181.226562 51.347656 180.417969 51.734375 C 178.765625 52.523438 177.125 53.335938 175.496094 54.160156 C 172.296875 55.785156 169.085938 57.402344 165.859375 58.992188 C 162.421875 60.683594 159.070312 62.582031 155.816406 64.492188 C 151.765625 66.867188 147.785156 69.332031 143.875 71.855469 C 143.199219 72.289062 142.527344 72.726562 141.851562 73.164062 C 141.855469 72.304688 141.867188 71.441406 141.875 70.578125 C 141.886719 69.78125 141.867188 67.117188 142.085938 66.109375 C 142.253906 65.984375 142.425781 65.867188 142.59375 65.726562 C 143.199219 65.222656 143.933594 64.480469 144.347656 63.8125 C 145.480469 62.011719 145.214844 59.609375 143.808594 58.0625 C 143.734375 56.445312 143.058594 55.394531 141.730469 54.910156 L 141.691406 52.960938 C 142.355469 52.589844 142.933594 52.109375 143.292969 51.433594 Z M 143.289062 51.433594 " fill-opacity="1" fill-rule="evenodd"/><path fill="#ffffff" d="M 100.589844 162.667969 C 95.4375 155.441406 90.214844 147.957031 86.09375 140.332031 C 83.214844 135.011719 81.058594 129.753906 79.816406 124.046875 C 77.128906 111.707031 80.226562 102.464844 87.753906 91.507812 C 90.90625 86.917969 96.234375 82.21875 100.8125 78.46875 C 107.105469 73.3125 113.980469 68.460938 121.058594 63.984375 C 122.308594 63.191406 123.570312 62.410156 124.84375 61.640625 C 124.894531 63.25 126.050781 64.875 127.40625 65.683594 C 127.863281 65.957031 128.238281 66.230469 128.398438 66.753906 C 128.546875 67.246094 128.515625 68.746094 128.519531 69.257812 C 128.558594 73.484375 128.472656 77.734375 128.421875 81.960938 L 128.414062 82.484375 C 127.820312 82.929688 127.230469 83.375 126.648438 83.828125 C 121.414062 87.867188 116.046875 92.152344 112.179688 97.097656 C 110.472656 99.28125 109.054688 101.574219 107.746094 103.921875 C 103.800781 111.011719 102.859375 114.742188 103.320312 122.464844 C 103.773438 130.054688 106.84375 137.570312 110.765625 144.683594 C 110.289062 145.085938 109.949219 145.652344 109.757812 146.289062 C 109.714844 146.425781 109.664062 146.585938 109.605469 146.71875 C 109.597656 146.730469 109.589844 146.742188 109.585938 146.757812 C 109.25 147.421875 109.175781 148.386719 109.175781 149.132812 C 109.175781 149.882812 108.5 150.40625 108 150.878906 C 106.941406 151.871094 106.40625 152.597656 105.949219 153.972656 C 105.777344 154.488281 105.542969 155.199219 105.464844 155.800781 C 104.800781 157.042969 105.242188 158.199219 106.042969 159.308594 L 106.144531 159.453125 L 106.117188 163.605469 C 104.277344 163.265625 102.4375 162.957031 100.59375 162.667969 Z M 100.589844 162.667969 " fill-opacity="1" fill-rule="evenodd"/><g clip-path="url(#7080eb448d)"><path fill="#ffffff" d="M 135.359375 24.675781 C 135.269531 24.746094 135.21875 25.015625 135.21875 25.261719 C 135.21875 25.53125 135.09375 25.921875 134.933594 26.136719 C 134.683594 26.507812 134.683594 26.597656 134.933594 27.148438 C 135.199219 27.703125 135.199219 27.808594 134.949219 28.289062 C 134.628906 28.929688 134.613281 29.269531 134.898438 29.730469 C 135.074219 30 135.058594 30.121094 134.789062 30.425781 C 134.539062 30.691406 134.488281 30.960938 134.558594 31.441406 C 134.628906 31.867188 134.488281 32.8125 134.148438 34.199219 C 133.863281 35.359375 133.453125 37.601562 133.242188 39.203125 C 132.851562 42.070312 132.832031 42.121094 132.15625 42.941406 C 131.390625 43.886719 131.335938 44.136719 131.835938 44.5625 C 132.082031 44.757812 132.191406 45.078125 132.191406 45.578125 C 132.191406 46.21875 132.082031 46.378906 130.871094 47.550781 C 130.144531 48.246094 129.414062 49.101562 129.253906 49.441406 C 128.96875 50.046875 128.96875 50.097656 129.289062 50.527344 C 129.484375 50.773438 129.964844 51.097656 130.375 51.238281 L 131.121094 51.488281 L 131.121094 53.105469 C 131.121094 54.015625 131.070312 55.28125 130.996094 55.9375 L 130.890625 57.148438 L 130.285156 57.148438 C 129.253906 57.148438 128.984375 57.398438 128.984375 58.394531 C 128.984375 59.214844 128.929688 59.320312 128.433594 59.625 C 127.703125 60.070312 127.203125 60.835938 127.203125 61.527344 C 127.203125 62.222656 127.847656 63.183594 128.613281 63.648438 C 129.734375 64.304688 130.355469 65.054688 130.660156 66.070312 C 130.925781 66.941406 130.945312 68.328125 130.785156 81.984375 C 130.445312 109.015625 130.445312 108.976562 130.054688 109.261719 C 129.839844 109.425781 129.699219 109.726562 129.699219 110.046875 C 129.699219 110.582031 129.644531 110.632812 128.773438 110.8125 C 128.113281 110.953125 128.132812 111.347656 128.898438 112.824219 L 129.519531 114.035156 L 129.34375 120.179688 C 129.253906 123.5625 129.09375 129.082031 128.988281 132.464844 C 128.898438 135.847656 128.753906 141.3125 128.703125 144.605469 C 128.632812 147.902344 128.507812 150.714844 128.433594 150.839844 C 128.363281 150.964844 127.828125 151.105469 127.261719 151.160156 C 126.246094 151.246094 126.226562 151.246094 126.136719 151.871094 C 126.066406 152.316406 125.941406 152.511719 125.691406 152.546875 C 125.496094 152.582031 125.265625 152.691406 125.160156 152.78125 C 125.070312 152.867188 124.839844 152.941406 124.625 152.941406 C 124.429688 152.941406 123.914062 153.066406 123.484375 153.222656 C 123.058594 153.367188 122.667969 153.4375 122.613281 153.386719 C 122.542969 153.332031 122.648438 152.90625 122.828125 152.441406 C 123.003906 151.980469 123.183594 151.300781 123.238281 150.945312 C 123.308594 150.359375 123.273438 150.253906 122.898438 150.109375 C 122.113281 149.824219 121.867188 149.414062 121.867188 148.507812 C 121.867188 147.8125 121.972656 147.511719 122.417969 146.957031 C 122.914062 146.335938 122.96875 146.15625 122.898438 145.339844 C 122.828125 144.484375 122.71875 144.304688 121.828125 143.363281 C 121.1875 142.703125 120.761719 142.0625 120.636719 141.617188 C 120.296875 140.386719 120.15625 140.351562 119.816406 141.421875 C 119.621094 142.042969 119.160156 142.828125 118.464844 143.664062 C 117.183594 145.25 117.074219 145.941406 117.949219 146.941406 C 118.410156 147.472656 118.480469 147.6875 118.480469 148.632812 C 118.480469 149.558594 118.429688 149.734375 118.125 149.824219 C 117.929688 149.878906 117.628906 150.128906 117.433594 150.375 C 117.074219 150.820312 117.09375 151.195312 117.503906 151.695312 C 117.628906 151.835938 117.769531 152.246094 117.824219 152.585938 C 117.875 152.921875 118 153.527344 118.109375 153.917969 C 118.25 154.472656 118.234375 154.683594 118.035156 154.898438 C 117.824219 155.128906 117.769531 156.054688 117.734375 159.457031 L 117.679688 163.710938 L 117.164062 163.765625 C 116.878906 163.800781 116.59375 163.730469 116.503906 163.589844 C 116.414062 163.464844 116.34375 162.359375 116.34375 161.148438 C 116.34375 158.957031 116.34375 158.957031 116.878906 158.335938 C 117.464844 157.675781 117.519531 157.304688 117.21875 156.019531 C 116.773438 154.132812 116.488281 153.601562 115.132812 152.195312 C 113.691406 150.699219 113.316406 149.96875 113.316406 148.667969 C 113.300781 146.871094 112.390625 145.695312 112.019531 146.976562 C 111.929688 147.261719 111.785156 147.652344 111.699219 147.8125 C 111.609375 147.992188 111.535156 148.578125 111.535156 149.128906 C 111.535156 150.410156 111.074219 151.230469 109.613281 152.601562 C 108.757812 153.402344 108.492188 153.796875 108.191406 154.722656 C 107.976562 155.34375 107.796875 156.003906 107.796875 156.183594 C 107.796875 156.359375 107.710938 156.644531 107.601562 156.824219 C 107.425781 157.089844 107.496094 157.285156 107.957031 157.925781 L 108.511719 158.710938 L 108.472656 164.050781 C 113.171875 164.96875 117.839844 166.050781 122.445312 167.300781 C 122.453125 166.757812 122.46875 166.410156 122.488281 166.332031 C 122.628906 165.761719 123.214844 165.226562 123.695312 165.226562 C 123.929688 165.226562 124.285156 165.476562 124.585938 165.832031 L 125.066406 166.453125 L 125.066406 168.03125 C 126.527344 168.453125 127.980469 168.890625 129.421875 169.34375 C 132.136719 170.199219 134.882812 171.132812 137.621094 172.15625 L 137.621094 166.472656 L 138.082031 166.007812 C 138.832031 165.28125 142.054688 163.109375 142.285156 163.179688 C 142.410156 163.214844 143.246094 163.765625 144.136719 164.371094 C 145.042969 164.996094 145.988281 165.617188 146.238281 165.777344 L 146.699219 166.0625 L 146.753906 171.691406 L 146.78125 175.953125 C 151.546875 178.144531 156.144531 180.644531 160.355469 183.5 C 163.574219 185.679688 166.96875 188.503906 170.171875 191.707031 C 170.152344 190.152344 170.132812 188.125 170.113281 185.488281 C 170.0625 179.382812 170.078125 174.21875 170.148438 173.988281 L 170.292969 173.597656 L 185.285156 173.632812 L 200.292969 173.683594 L 200.292969 184.8125 C 200.292969 186.378906 200.292969 187.75 200.289062 188.949219 C 206.480469 183.617188 213.625 179.226562 220.902344 175.769531 C 220.820312 172.964844 220.867188 166.78125 221.035156 166.472656 C 221.320312 165.957031 225.148438 163.285156 225.648438 163.269531 C 225.789062 163.269531 226.304688 163.519531 226.804688 163.839844 C 228.835938 165.105469 229.511719 165.585938 229.992188 166.066406 L 230.472656 166.582031 L 230.4375 171.765625 C 234.542969 170.25 238.738281 168.921875 242.980469 167.75 C 242.988281 167.097656 243.003906 166.660156 243.023438 166.546875 C 243.148438 165.851562 243.71875 165.226562 244.253906 165.226562 C 244.46875 165.226562 244.859375 165.460938 245.125 165.726562 L 245.605469 166.222656 L 245.605469 167.046875 C 249.019531 166.160156 252.457031 165.371094 255.886719 164.664062 C 257.09375 164.417969 258.300781 164.179688 259.511719 163.953125 L 259.476562 158.957031 L 260.027344 158.140625 C 260.4375 157.535156 260.5625 157.179688 260.472656 156.859375 C 260.417969 156.609375 260.296875 156.039062 260.226562 155.59375 C 260.046875 154.488281 259.40625 153.4375 258 151.996094 C 257.089844 151.070312 256.824219 150.660156 256.824219 150.269531 C 256.824219 149.734375 256.609375 148.683594 256.199219 147.242188 C 256.023438 146.585938 255.898438 146.441406 255.558594 146.441406 C 255.238281 146.441406 255.113281 146.546875 255.078125 146.886719 C 255.042969 147.136719 254.9375 147.402344 254.847656 147.492188 C 254.757812 147.601562 254.6875 148.0625 254.6875 148.542969 C 254.6875 150.128906 254.222656 151.089844 252.78125 152.53125 C 252.050781 153.28125 251.445312 154.046875 251.375 154.3125 C 251.320312 154.597656 251.195312 155.007812 251.109375 155.257812 C 250.789062 156.128906 250.859375 157.605469 251.285156 158.425781 C 251.640625 159.121094 251.660156 159.386719 251.625 161.984375 L 251.570312 164.78125 L 250.324219 164.78125 L 250.21875 159.796875 C 250.144531 157.054688 250.039062 154.523438 249.96875 154.167969 C 249.878906 153.671875 249.933594 153.351562 250.234375 152.78125 C 250.714844 151.820312 250.644531 151.144531 250.039062 150.859375 C 249.363281 150.539062 249.042969 149.414062 249.34375 148.488281 C 249.46875 148.097656 249.71875 147.652344 249.914062 147.492188 C 250.148438 147.28125 250.234375 146.941406 250.234375 146.351562 C 250.234375 145.570312 250.164062 145.445312 249.328125 144.625 C 248.542969 143.859375 248.382812 143.574219 248.0625 142.417969 C 247.886719 141.707031 247.671875 141.066406 247.636719 141.011719 C 247.496094 140.871094 247.226562 141.402344 246.871094 142.578125 C 246.605469 143.433594 246.300781 143.933594 245.625 144.664062 C 244.683594 145.660156 244.558594 146.070312 244.914062 147.011719 C 245.019531 147.28125 245.25 147.6875 245.445312 147.882812 C 245.75 148.203125 245.785156 148.472656 245.75 149.398438 C 245.695312 150.449219 245.660156 150.554688 245.199219 150.769531 C 244.519531 151.089844 244.433594 151.410156 244.808594 152.226562 C 244.96875 152.601562 245.054688 152.992188 245.003906 153.101562 C 244.84375 153.332031 244.238281 153.367188 244.113281 153.136719 C 244.058594 153.046875 243.757812 152.941406 243.4375 152.886719 C 243.117188 152.851562 242.332031 152.65625 241.691406 152.460938 L 240.53125 152.105469 L 240.40625 150.699219 C 240.300781 149.433594 240.175781 145.765625 239.570312 125.078125 C 239.464844 121.746094 239.375 117.863281 239.375 116.441406 L 239.375 113.839844 L 240 112.878906 C 240.765625 111.6875 240.78125 111.3125 240.085938 111.082031 C 239.625 110.902344 239.554688 110.796875 239.554688 110.191406 C 239.554688 109.65625 239.464844 109.460938 239.160156 109.300781 C 238.929688 109.175781 238.699219 108.996094 238.628906 108.890625 C 238.554688 108.785156 238.484375 99.132812 238.484375 87.453125 C 238.484375 69.488281 238.519531 66.125 238.734375 65.609375 C 238.875 65.289062 239.589844 64.414062 240.320312 63.703125 C 241.40625 62.636719 241.671875 62.261719 241.761719 61.671875 C 241.921875 60.800781 241.707031 60.25 240.996094 59.574219 C 240.515625 59.109375 240.445312 58.914062 240.445312 58.113281 C 240.445312 57.082031 240.320312 56.972656 239.179688 56.972656 L 238.484375 56.972656 L 238.484375 51.453125 L 239.160156 51.117188 C 240.78125 50.296875 240.765625 49.671875 239.054688 47.855469 C 238.078125 46.824219 237.863281 46.484375 237.753906 45.792969 C 237.648438 45.097656 237.683594 44.867188 237.96875 44.476562 C 238.148438 44.207031 238.308594 43.90625 238.308594 43.816406 C 238.308594 43.726562 237.988281 43.28125 237.613281 42.835938 C 237.023438 42.160156 236.882812 41.855469 236.792969 41.003906 C 236.417969 37.566406 235.9375 34.289062 235.652344 33.1875 C 235.476562 32.492188 235.371094 31.671875 235.421875 31.351562 C 235.476562 30.960938 235.402344 30.675781 235.191406 30.445312 C 234.90625 30.140625 234.90625 30.019531 235.101562 29.644531 C 235.277344 29.304688 235.296875 29.074219 235.101562 28.414062 C 234.960938 27.863281 234.941406 27.453125 235.046875 27.117188 C 235.171875 26.761719 235.15625 26.457031 234.992188 26.082031 C 234.867188 25.78125 234.761719 25.371094 234.746094 25.140625 C 234.746094 24.550781 234.390625 24.660156 234.390625 25.265625 C 234.390625 25.550781 234.265625 25.871094 234.121094 25.996094 C 233.800781 26.261719 233.785156 26.707031 234.070312 27.328125 C 234.246094 27.722656 234.230469 27.898438 233.960938 28.398438 C 233.675781 28.914062 233.660156 29.09375 233.835938 29.539062 C 234.03125 29.964844 234.015625 30.125 233.765625 30.5 C 233.570312 30.820312 233.515625 31.140625 233.589844 31.566406 C 233.660156 31.957031 233.589844 32.707031 233.355469 33.597656 C 232.875 35.464844 232.484375 37.496094 232.253906 39.4375 C 231.949219 42 231.898438 42.179688 231.167969 43.015625 C 230.382812 43.921875 230.3125 44.246094 230.828125 44.511719 C 231.113281 44.652344 231.183594 44.886719 231.183594 45.527344 C 231.183594 46.308594 231.128906 46.398438 230.027344 47.414062 C 227.996094 49.285156 227.640625 50.371094 228.867188 50.957031 C 229.207031 51.117188 229.632812 51.296875 229.8125 51.347656 C 230.097656 51.4375 230.113281 51.6875 230.078125 54.25 L 230.027344 57.0625 L 229.171875 57.1875 C 228.691406 57.261719 228.261719 57.332031 228.226562 57.386719 C 228.191406 57.421875 228.101562 57.847656 228.03125 58.328125 C 227.941406 59.058594 227.800781 59.324219 227.160156 59.914062 C 226.75 60.304688 226.339844 60.855469 226.269531 61.140625 C 226.074219 61.960938 226.785156 63.136719 227.90625 63.847656 C 228.421875 64.167969 228.992188 64.648438 229.1875 64.898438 C 229.953125 65.878906 229.972656 66.25 229.777344 82.132812 C 229.667969 90.394531 229.582031 99.851562 229.582031 103.109375 L 229.582031 109.054688 L 229.1875 109.234375 C 228.886719 109.355469 228.761719 109.589844 228.726562 110.070312 C 228.671875 110.640625 228.601562 110.746094 228.261719 110.746094 C 228.050781 110.746094 227.710938 110.851562 227.535156 110.996094 C 227.195312 111.246094 227.195312 111.28125 227.871094 112.582031 L 228.546875 113.914062 L 228.351562 120.378906 C 228.246094 123.941406 228.085938 131.027344 227.980469 136.117188 C 227.871094 141.210938 227.746094 146.285156 227.695312 147.390625 C 227.585938 149.328125 227.570312 149.398438 227.195312 149.347656 C 226.820312 149.292969 226.820312 149.222656 226.734375 144.753906 C 226.625 139.660156 226.609375 139.535156 225.308594 138.503906 C 224.488281 137.84375 224.402344 137.308594 224.953125 136.617188 C 225.378906 136.082031 225.417969 135.457031 225.058594 134.90625 C 224.847656 134.585938 224.828125 134.265625 224.953125 133.214844 C 225.378906 129.9375 224.242188 126.574219 221.925781 124.261719 C 220.644531 122.976562 218.507812 121.765625 215.980469 120.878906 C 214.234375 120.273438 213.984375 119.953125 213.859375 118.082031 C 213.789062 116.835938 213.808594 116.765625 214.199219 116.585938 C 214.75 116.335938 214.75 116.050781 214.199219 116.195312 C 213.664062 116.320312 213.078125 116.035156 212.933594 115.535156 C 212.84375 115.269531 212.953125 115.019531 213.308594 114.648438 C 213.769531 114.164062 213.789062 114.128906 213.433594 114.128906 C 212.953125 114.128906 212.3125 114.929688 212.3125 115.5 C 212.3125 115.75 212.523438 116.125 212.84375 116.410156 L 213.378906 116.90625 L 213.21875 118.277344 C 213.042969 119.863281 212.667969 120.59375 212.0625 120.503906 C 211.828125 120.488281 211.546875 120.539062 211.402344 120.644531 C 211.261719 120.753906 210.636719 121.019531 209.996094 121.253906 C 206.3125 122.570312 204.140625 124.261719 202.875 126.824219 C 201.894531 128.835938 201.574219 130.476562 201.699219 132.824219 C 201.789062 134.320312 201.753906 134.765625 201.539062 135.03125 C 201.148438 135.550781 201.21875 136.082031 201.71875 136.5625 C 202.535156 137.328125 202.339844 137.453125 200.382812 137.453125 C 199.3125 137.453125 198.601562 137.382812 198.601562 137.277344 C 198.601562 137.167969 198.671875 137.097656 198.742188 137.097656 C 199.046875 137.097656 199.492188 136.011719 199.492188 135.230469 C 199.492188 134.304688 199.3125 133.859375 198.636719 133.144531 L 198.191406 132.664062 L 198.886719 131.828125 C 200.363281 130.066406 201.148438 128.945312 201.714844 127.75 C 202.714844 125.652344 202.945312 124.527344 202.945312 121.519531 C 202.945312 119.117188 202.890625 118.707031 202.464844 117.425781 C 201.824219 115.484375 200.878906 113.9375 199.457031 112.511719 C 198.03125 111.070312 197.015625 110.339844 192.8125 107.703125 C 191.050781 106.601562 189.164062 105.355469 188.628906 104.945312 C 187.367188 104 185.585938 102.078125 184.980469 101.0625 L 184.515625 100.261719 L 184.960938 99.015625 C 185.460938 97.644531 185.425781 97.414062 184.679688 96.539062 C 184.144531 95.917969 184.054688 95.367188 184.394531 94.636719 C 184.554688 94.261719 184.535156 93.996094 184.304688 93.230469 C 183.929688 92.035156 183.894531 89.917969 184.25 89.917969 C 184.855469 89.917969 186.332031 89.292969 186.707031 88.886719 C 187.082031 88.476562 187.082031 88.441406 186.761719 88.582031 C 186.566406 88.652344 186.046875 88.832031 185.601562 88.972656 C 182.914062 89.828125 179.816406 87.335938 180.136719 84.59375 C 180.277344 83.4375 180.8125 82.421875 181.632812 81.746094 C 182.363281 81.140625 183.589844 80.65625 184.425781 80.65625 C 184.90625 80.640625 184.945312 80.621094 184.640625 80.445312 C 184.160156 80.175781 182.414062 80.375 181.542969 80.820312 C 179.671875 81.78125 178.746094 83.203125 178.78125 85.109375 C 178.820312 87.140625 179.746094 88.5625 181.648438 89.417969 L 182.753906 89.917969 L 182.753906 91.003906 C 182.753906 91.695312 182.628906 92.375 182.378906 92.941406 C 182.003906 93.796875 182.003906 93.832031 182.324219 94.707031 L 182.644531 95.597656 L 182.039062 96.539062 C 181.328125 97.660156 181.292969 98.390625 181.914062 99.210938 C 182.910156 100.527344 182.714844 101.042969 180.367188 103.359375 C 179.242188 104.464844 178.015625 105.425781 176.429688 106.441406 C 175.148438 107.257812 173.121094 108.578125 171.890625 109.359375 C 167.15625 112.402344 165.144531 115.253906 164.589844 119.6875 C 164.394531 121.269531 164.574219 123.726562 164.964844 125.257812 C 165.355469 126.738281 166.886719 129.53125 168.152344 131.101562 L 169.433594 132.683594 L 168.988281 133.148438 C 168.347656 133.859375 168.152344 134.320312 168.152344 135.195312 C 168.152344 135.746094 168.296875 136.191406 168.597656 136.65625 C 168.863281 137.011719 169.042969 137.347656 169.007812 137.367188 C 168.917969 137.457031 167.441406 137.527344 166.691406 137.492188 C 165.910156 137.457031 165.839844 137.207031 166.371094 136.511719 C 166.78125 135.980469 166.835938 135.265625 166.480469 134.964844 C 166.265625 134.804688 166.230469 134.359375 166.320312 132.683594 C 166.425781 130.246094 166.175781 128.910156 165.214844 126.828125 C 164.039062 124.28125 161.652344 122.449219 157.613281 121.007812 C 155.691406 120.328125 155.441406 120.007812 155.246094 118.03125 C 155.121094 116.859375 155.121094 116.839844 155.617188 116.609375 C 155.886719 116.464844 156.152344 116.253906 156.1875 116.128906 C 156.242188 115.933594 156.1875 115.914062 155.902344 116.074219 C 155.371094 116.359375 155.03125 116.324219 154.621094 115.914062 C 154.140625 115.433594 154.175781 115.09375 154.730469 114.578125 C 155.15625 114.167969 155.175781 114.132812 154.855469 114.132812 C 154.375 114.132812 153.730469 114.863281 153.730469 115.398438 C 153.730469 115.933594 154.195312 116.628906 154.53125 116.628906 C 154.746094 116.628906 154.78125 116.875 154.675781 118 C 154.515625 120.082031 154.445312 120.171875 152.199219 120.972656 C 148.371094 122.34375 146.628906 123.410156 145.257812 125.226562 C 143.601562 127.417969 142.941406 129.765625 143.136719 132.777344 C 143.226562 134.289062 143.207031 134.679688 142.976562 135.003906 C 142.566406 135.574219 142.621094 136.089844 143.136719 136.570312 C 143.796875 137.191406 143.722656 137.816406 142.886719 138.492188 C 141.640625 139.488281 141.625 139.632812 141.625 145.523438 C 141.625 148.75 141.550781 150.832031 141.445312 150.902344 C 141.355469 150.957031 141.25 150.832031 141.195312 150.597656 C 141.144531 150.367188 141.019531 146.414062 140.910156 141.820312 C 140.804688 137.210938 140.644531 130.695312 140.554688 127.308594 C 140.46875 123.929688 140.378906 119.53125 140.34375 117.515625 L 140.289062 113.867188 L 141 112.726562 L 141.695312 111.605469 L 141.269531 111.269531 C 141.019531 111.070312 140.71875 110.839844 140.609375 110.75 C 140.484375 110.644531 140.378906 110.289062 140.378906 109.96875 C 140.378906 109.523438 140.273438 109.34375 139.933594 109.183594 L 139.488281 108.96875 L 139.488281 87.390625 C 139.488281 62.855469 139.308594 65.402344 141.074219 63.925781 C 141.589844 63.496094 142.140625 62.890625 142.335938 62.570312 C 142.960938 61.59375 142.726562 60.1875 141.820312 59.4375 C 141.554688 59.207031 141.445312 58.90625 141.445312 58.371094 C 141.445312 57.320312 141.25 57.105469 140.253906 57 L 139.398438 56.890625 L 139.289062 51.445312 L 139.96875 51.175781 C 141.835938 50.394531 141.765625 49.699219 139.539062 47.332031 C 138.6875 46.421875 138.597656 46.246094 138.597656 45.515625 C 138.597656 44.925781 138.703125 44.589844 138.953125 44.339844 C 139.148438 44.144531 139.308594 43.914062 139.308594 43.839844 C 139.308594 43.753906 138.953125 43.273438 138.507812 42.753906 C 137.867188 42.007812 137.707031 41.6875 137.707031 41.152344 C 137.707031 40.03125 137.191406 36.132812 136.78125 34.28125 C 136.566406 33.300781 136.390625 32.089844 136.371094 31.609375 C 136.371094 31.109375 136.246094 30.539062 136.105469 30.328125 C 135.890625 30.007812 135.890625 29.863281 136.085938 29.492188 C 136.285156 29.132812 136.300781 28.9375 136.105469 28.511719 C 135.960938 28.171875 135.925781 27.675781 135.996094 27.175781 C 136.070312 26.730469 136.050781 26.234375 135.945312 26.054688 C 135.855469 25.875 135.710938 25.464844 135.625 25.144531 C 135.550781 24.808594 135.425781 24.613281 135.355469 24.683594 Z M 134.503906 45.398438 C 134.503906 45.878906 134.433594 46.324219 134.328125 46.378906 C 134.222656 46.449219 134.148438 46.074219 134.148438 45.398438 C 134.148438 44.722656 134.222656 44.347656 134.328125 44.421875 C 134.433594 44.472656 134.503906 44.917969 134.503906 45.398438 Z M 136.695312 45.933594 L 136.570312 46.554688 L 136.429688 45.933594 C 136.355469 45.59375 136.339844 45.0625 136.410156 44.777344 L 136.515625 44.242188 L 136.660156 44.777344 C 136.75 45.058594 136.765625 45.59375 136.695312 45.933594 Z M 236.898438 46.039062 C 236.777344 46.519531 236.757812 46.484375 236.632812 45.613281 C 236.492188 44.507812 236.703125 43.921875 236.917969 44.882812 C 236.988281 45.238281 236.988281 45.753906 236.898438 46.042969 Z M 135.75 45.398438 C 135.75 45.773438 135.679688 46.148438 135.574219 46.199219 C 135.46875 46.269531 135.394531 45.96875 135.394531 45.398438 C 135.394531 44.828125 135.46875 44.527344 135.574219 44.597656 C 135.679688 44.652344 135.75 45.023438 135.75 45.398438 Z M 137.886719 45.488281 C 137.886719 46.023438 137.816406 46.46875 137.710938 46.46875 C 137.621094 46.46875 137.53125 46.023438 137.53125 45.488281 C 137.53125 44.953125 137.621094 44.507812 137.710938 44.507812 C 137.816406 44.507812 137.886719 44.953125 137.886719 45.488281 Z M 232.253906 45.328125 C 232.253906 45.808594 232.183594 46.09375 232.074219 46.023438 C 231.773438 45.824219 231.878906 44.507812 232.199219 44.507812 C 232.234375 44.507812 232.253906 44.882812 232.253906 45.328125 Z M 233.5 45.382812 C 233.5 45.878906 233.429688 46.324219 233.320312 46.378906 C 233.214844 46.449219 233.144531 46.113281 233.144531 45.507812 C 233.144531 44.953125 233.234375 44.507812 233.320312 44.507812 C 233.429688 44.507812 233.5 44.902344 233.5 45.382812 Z M 234.601562 45.878906 C 234.441406 46.324219 234.425781 46.253906 234.425781 45.398438 C 234.425781 44.542969 234.441406 44.472656 234.601562 44.898438 C 234.710938 45.238281 234.710938 45.558594 234.601562 45.878906 Z M 133.027344 45.878906 C 132.992188 46.164062 132.957031 45.96875 132.957031 45.488281 C 132.957031 44.988281 132.992188 44.777344 133.027344 44.988281 C 133.0625 45.222656 133.0625 45.613281 133.027344 45.878906 Z M 136.429688 52.273438 C 136.785156 52.679688 136.820312 52.894531 136.820312 54.925781 L 136.820312 57.113281 L 135.679688 57.238281 C 133.792969 57.453125 133.882812 57.558594 133.828125 55.101562 C 133.773438 52.71875 133.917969 52.253906 134.773438 51.878906 C 135.429688 51.597656 135.894531 51.703125 136.425781 52.273438 Z M 235.476562 52.164062 L 236.011719 52.679688 L 235.902344 57.0625 L 234.585938 57.117188 C 233.855469 57.152344 233.199219 57.097656 233.089844 56.992188 C 232.878906 56.777344 232.753906 53.324219 232.964844 52.804688 C 233.429688 51.597656 234.605469 51.292969 235.476562 52.164062 Z M 130.625 59.054688 C 130.75 60.105469 130.570312 61.246094 130.304688 61.246094 C 130.109375 61.246094 130.054688 60.90625 130.054688 59.820312 C 130.054688 58.71875 130.109375 58.398438 130.304688 58.398438 C 130.464844 58.398438 130.589844 58.648438 130.625 59.054688 Z M 132.421875 58.984375 C 132.546875 59.820312 132.367188 61.28125 132.121094 61.191406 C 131.921875 61.121094 131.746094 59.074219 131.90625 58.644531 C 132.066406 58.21875 132.316406 58.378906 132.421875 58.984375 Z M 134.328125 59.820312 C 134.328125 60.960938 134.273438 61.246094 134.058594 61.246094 C 133.847656 61.246094 133.792969 60.960938 133.792969 59.820312 C 133.792969 58.679688 133.847656 58.398438 134.058594 58.398438 C 134.273438 58.398438 134.328125 58.679688 134.328125 59.820312 Z M 135.839844 59.820312 C 135.839844 60.710938 135.769531 61.15625 135.628906 61.191406 C 135.449219 61.261719 135.394531 60.90625 135.394531 59.820312 C 135.394531 58.734375 135.449219 58.378906 135.628906 58.433594 C 135.769531 58.484375 135.839844 58.929688 135.839844 59.820312 Z M 137.445312 59.820312 C 137.445312 60.710938 137.371094 61.15625 137.230469 61.191406 C 137.050781 61.261719 137 60.90625 137 59.820312 C 137 58.734375 137.050781 58.378906 137.230469 58.433594 C 137.371094 58.484375 137.445312 58.929688 137.445312 59.820312 Z M 139.136719 59.820312 C 139.136719 60.960938 139.082031 61.246094 138.867188 61.246094 C 138.652344 61.246094 138.601562 60.960938 138.601562 59.820312 C 138.601562 58.679688 138.652344 58.398438 138.867188 58.398438 C 139.082031 58.398438 139.136719 58.679688 139.136719 59.820312 Z M 140.558594 59.820312 C 140.558594 60.960938 140.503906 61.246094 140.292969 61.246094 C 140.078125 61.246094 140.023438 60.960938 140.023438 59.820312 C 140.023438 58.679688 140.078125 58.398438 140.292969 58.398438 C 140.503906 58.398438 140.558594 58.679688 140.558594 59.820312 Z M 229.652344 58.789062 C 229.921875 59.785156 229.707031 61.246094 229.296875 61.246094 C 229.101562 61.246094 229.046875 60.90625 229.046875 59.820312 C 229.046875 58.734375 229.101562 58.398438 229.296875 58.398438 C 229.421875 58.398438 229.582031 58.574219 229.652344 58.789062 Z M 231.433594 58.679688 C 231.488281 58.839844 231.539062 59.339844 231.539062 59.820312 C 231.539062 60.765625 231.414062 61.246094 231.167969 61.246094 C 231.078125 61.246094 231.007812 60.601562 231.007812 59.820312 C 231.007812 58.484375 231.183594 58.023438 231.433594 58.679688 Z M 233.429688 59.199219 C 233.570312 60.175781 233.375 61.296875 233.089844 61.191406 C 232.949219 61.15625 232.859375 60.621094 232.824219 59.769531 C 232.785156 58.644531 232.824219 58.398438 233.035156 58.398438 C 233.214844 58.398438 233.339844 58.664062 233.425781 59.199219 Z M 234.921875 59.820312 C 234.921875 60.960938 234.871094 61.246094 234.65625 61.246094 C 234.441406 61.246094 234.390625 60.960938 234.390625 59.820312 C 234.390625 58.679688 234.441406 58.398438 234.65625 58.398438 C 234.871094 58.398438 234.921875 58.679688 234.921875 59.820312 Z M 236.527344 59.839844 C 236.527344 60.90625 236.472656 61.261719 236.3125 61.210938 C 236.171875 61.15625 236.0625 60.710938 236.027344 60 C 235.976562 58.804688 236.046875 58.398438 236.347656 58.398438 C 236.457031 58.398438 236.527344 58.964844 236.527344 59.839844 Z M 238.234375 59.039062 C 238.34375 59.660156 238.253906 61.015625 238.074219 61.191406 C 237.773438 61.476562 237.59375 60.890625 237.59375 59.714844 C 237.59375 58.683594 237.648438 58.398438 237.863281 58.398438 C 238.003906 58.398438 238.164062 58.648438 238.234375 59.039062 Z M 239.554688 59.839844 C 239.554688 60.90625 239.5 61.261719 239.339844 61.210938 C 239.179688 61.15625 239.089844 60.65625 239.054688 59.769531 C 239.019531 58.628906 239.054688 58.398438 239.285156 58.398438 C 239.5 58.398438 239.554688 58.664062 239.554688 59.839844 Z M 136.195312 66.675781 C 136.640625 67.101562 136.640625 67.136719 136.640625 70.414062 L 136.640625 73.710938 L 135.894531 73.746094 C 134.613281 73.800781 133.917969 73.726562 133.757812 73.496094 C 133.6875 73.371094 133.613281 71.910156 133.613281 70.273438 L 133.613281 67.265625 L 134.132812 66.75 C 134.808594 66.089844 135.59375 66.054688 136.195312 66.675781 Z M 235.226562 66.660156 L 235.722656 67.085938 L 235.722656 73.621094 L 232.699219 73.621094 L 232.644531 70.949219 C 232.609375 69.472656 232.644531 68.011719 232.699219 67.671875 C 232.945312 66.355469 234.246094 65.820312 235.226562 66.660156 Z M 136.214844 79.316406 L 136.640625 79.761719 L 136.605469 83.003906 L 136.550781 86.261719 L 135.339844 86.316406 C 134.59375 86.351562 134.023438 86.28125 133.863281 86.15625 C 133.667969 85.996094 133.613281 85.320312 133.613281 82.96875 C 133.613281 79.996094 133.613281 79.960938 134.078125 79.425781 C 134.664062 78.710938 135.554688 78.660156 136.214844 79.316406 Z M 235.296875 79.335938 C 235.707031 79.761719 235.722656 79.90625 235.777344 82.648438 C 235.867188 86.582031 235.957031 86.367188 234.15625 86.316406 L 232.699219 86.261719 L 232.644531 83.324219 C 232.609375 81.402344 232.664062 80.226562 232.804688 79.886719 C 233.25 78.820312 234.53125 78.515625 235.296875 79.335938 Z M 136.214844 93.027344 L 136.640625 93.472656 L 136.605469 96.714844 L 136.550781 99.972656 L 133.703125 99.972656 L 133.648438 96.804688 L 133.613281 93.632812 L 134.128906 93.097656 C 134.808594 92.441406 135.589844 92.40625 136.214844 93.027344 Z M 235.296875 93.046875 C 235.707031 93.492188 235.722656 93.597656 235.777344 96.570312 C 235.832031 99.097656 235.796875 99.6875 235.582031 99.867188 C 235.40625 100.007812 234.851562 100.0625 233.996094 100.027344 L 232.699219 99.972656 L 232.644531 97.300781 C 232.609375 95.824219 232.644531 94.363281 232.699219 94.023438 C 232.945312 92.671875 234.425781 92.101562 235.296875 93.046875 Z M 131.441406 111.972656 C 131.496094 113.46875 131.460938 113.609375 131.175781 113.554688 C 130.910156 113.503906 130.855469 113.273438 130.800781 112.097656 C 130.746094 110.546875 130.820312 110.136719 131.175781 110.246094 C 131.316406 110.296875 131.40625 110.851562 131.441406 111.972656 Z M 133.578125 111.792969 C 133.632812 113.324219 133.453125 113.859375 133.046875 113.449219 C 132.796875 113.199219 132.636719 111.3125 132.796875 110.65625 C 132.886719 110.335938 133.011719 110.210938 133.222656 110.246094 C 133.472656 110.296875 133.527344 110.546875 133.578125 111.792969 Z M 135.484375 110.617188 C 135.539062 110.832031 135.574219 111.582031 135.539062 112.257812 C 135.503906 113.21875 135.429688 113.503906 135.21875 113.503906 C 135.023438 113.503906 134.914062 113.164062 134.808594 112.113281 C 134.71875 111.351562 134.703125 110.601562 134.753906 110.460938 C 134.898438 110.066406 135.378906 110.15625 135.484375 110.621094 Z M 137.371094 110.761719 C 137.675781 111.828125 137.496094 113.59375 137.085938 113.59375 C 136.960938 113.59375 136.820312 113.414062 136.75 113.183594 C 136.605469 112.648438 136.605469 110.476562 136.765625 110.316406 C 136.980469 110.121094 137.246094 110.316406 137.371094 110.761719 Z M 139.453125 111.8125 C 139.507812 113.308594 139.292969 113.96875 138.957031 113.414062 C 138.761719 113.113281 138.722656 110.511719 138.902344 110.316406 C 139.242188 109.996094 139.402344 110.460938 139.453125 111.8125 Z M 230.4375 110.421875 C 230.683594 110.671875 230.722656 113.023438 230.488281 113.398438 C 230.1875 113.859375 229.992188 113.414062 229.867188 111.988281 C 229.707031 110.296875 229.867188 109.855469 230.4375 110.421875 Z M 232.625 110.585938 C 232.824219 110.976562 232.785156 113.289062 232.574219 113.523438 C 232.5 113.574219 232.324219 113.59375 232.164062 113.539062 C 231.949219 113.449219 231.894531 113.113281 231.894531 111.9375 C 231.894531 111.117188 231.949219 110.386719 232.019531 110.332031 C 232.21875 110.121094 232.414062 110.191406 232.625 110.582031 Z M 234.476562 111.902344 C 234.476562 113.203125 234.425781 113.503906 234.210938 113.503906 C 233.996094 113.503906 233.925781 113.183594 233.890625 111.847656 C 233.835938 110.335938 233.871094 110.191406 234.15625 110.246094 C 234.441406 110.300781 234.476562 110.511719 234.476562 111.902344 Z M 236.453125 111.03125 C 236.5625 111.832031 236.472656 113.34375 236.292969 113.523438 C 235.972656 113.84375 235.8125 113.238281 235.8125 111.792969 C 235.8125 110.53125 235.867188 110.210938 236.0625 110.210938 C 236.238281 110.210938 236.363281 110.496094 236.453125 111.03125 Z M 238.449219 110.421875 C 238.574219 110.546875 238.660156 111.1875 238.660156 112.027344 C 238.660156 113.128906 238.609375 113.449219 238.394531 113.539062 C 237.949219 113.699219 237.878906 113.488281 237.808594 112.0625 C 237.71875 110.335938 237.898438 109.871094 238.449219 110.421875 Z M 146.824219 131.398438 C 147.003906 131.738281 147.144531 132.324219 147.144531 132.679688 L 147.144531 133.355469 L 146.273438 133.355469 C 145.542969 133.355469 145.382812 133.304688 145.3125 133 C 145.132812 132.289062 145.863281 130.578125 146.289062 130.722656 C 146.398438 130.757812 146.628906 131.078125 146.824219 131.398438 Z M 151.027344 131.398438 C 151.257812 131.753906 151.417969 132.253906 151.417969 132.679688 L 151.417969 133.375 L 150.402344 133.320312 L 149.371094 133.265625 L 149.425781 132.644531 C 149.515625 131.859375 150.121094 130.648438 150.40625 130.738281 C 150.53125 130.773438 150.796875 131.058594 151.027344 131.398438 Z M 155.871094 132.289062 C 155.976562 132.679688 156.011719 133.089844 155.960938 133.179688 C 155.835938 133.375 154.035156 133.429688 153.859375 133.25 C 153.714844 133.109375 154.179688 131.648438 154.554688 131.09375 L 154.855469 130.613281 L 155.265625 131.09375 C 155.496094 131.363281 155.761719 131.894531 155.871094 132.289062 Z M 159.929688 131.574219 C 160.144531 132.003906 160.320312 132.589844 160.320312 132.859375 C 160.320312 133.355469 160.304688 133.355469 159.234375 133.355469 L 158.148438 133.355469 L 158.273438 132.695312 C 158.433594 131.808594 159.039062 130.648438 159.304688 130.722656 C 159.429688 130.757812 159.699219 131.148438 159.929688 131.574219 Z M 205.511719 131.574219 C 205.722656 132.019531 205.882812 132.574219 205.867188 132.820312 C 205.8125 133.214844 205.722656 133.265625 204.941406 133.320312 C 204.460938 133.355469 203.996094 133.304688 203.890625 133.195312 C 203.496094 132.804688 204.386719 130.578125 204.886719 130.71875 C 205.011719 130.757812 205.277344 131.148438 205.507812 131.574219 Z M 209.515625 131.238281 C 209.960938 131.859375 210.226562 133.035156 209.941406 133.214844 C 209.816406 133.304688 209.335938 133.339844 208.839844 133.320312 C 207.964844 133.265625 207.949219 133.25 208.003906 132.734375 C 208.074219 132.019531 208.75 130.648438 208.980469 130.738281 C 209.089844 130.773438 209.320312 131.007812 209.515625 131.238281 Z M 214.449219 132.304688 C 214.609375 132.859375 214.589844 133.105469 214.449219 133.25 C 214.25 133.445312 212.828125 133.460938 212.507812 133.285156 C 212.292969 133.140625 212.683594 131.753906 213.128906 131.09375 L 213.433594 130.613281 L 213.84375 131.09375 C 214.074219 131.363281 214.339844 131.914062 214.449219 132.304688 Z M 218.488281 131.503906 C 218.71875 131.878906 218.898438 132.449219 218.898438 132.75 C 218.898438 133.230469 218.828125 133.320312 218.363281 133.410156 C 218.078125 133.480469 217.582031 133.480469 217.277344 133.410156 C 216.761719 133.304688 216.746094 133.265625 216.851562 132.660156 C 216.992188 131.859375 217.652344 130.648438 217.902344 130.738281 C 218.007812 130.773438 218.277344 131.113281 218.488281 131.503906 Z M 222.621094 131.273438 C 222.816406 131.59375 223.027344 132.199219 223.101562 132.609375 L 223.226562 133.355469 L 222.121094 133.355469 C 221.179688 133.355469 221.035156 133.304688 221.035156 133.019531 C 221.035156 132.304688 221.785156 130.6875 222.105469 130.6875 C 222.191406 130.6875 222.425781 130.953125 222.621094 131.273438 Z M 163.917969 131.167969 C 164.183594 131.46875 164.59375 132.644531 164.59375 133.105469 C 164.59375 133.375 163.507812 133.585938 162.921875 133.425781 C 162.582031 133.355469 162.457031 133.195312 162.457031 132.890625 C 162.457031 132.199219 163.152344 130.863281 163.523438 130.863281 C 163.597656 130.863281 163.773438 131.003906 163.917969 131.164062 Z M 187.6875 157.640625 C 188.167969 157.960938 189.128906 158.53125 189.839844 158.90625 L 191.121094 159.566406 L 191.121094 162.628906 C 191.121094 164.761719 191.050781 165.761719 190.910156 165.902344 C 190.679688 166.132812 187.3125 166.207031 186.777344 166.007812 C 186.53125 165.921875 186.496094 165.351562 186.496094 161.46875 C 186.496094 158.640625 186.566406 157.035156 186.671875 157.035156 C 186.761719 157.035156 187.222656 157.304688 187.6875 157.640625 Z M 183.464844 161.664062 L 183.464844 165.9375 L 178.835938 165.9375 L 178.835938 162.929688 C 178.835938 160.738281 178.890625 159.886719 179.070312 159.742188 C 179.175781 159.636719 179.835938 159.261719 180.511719 158.90625 C 181.207031 158.550781 182.042969 158.050781 182.382812 157.820312 C 182.738281 157.585938 183.109375 157.390625 183.234375 157.390625 C 183.414062 157.390625 183.46875 158.335938 183.46875 161.664062 Z M 195.304688 162.269531 C 196.605469 163.214844 198.421875 165.101562 198.421875 165.496094 C 198.421875 165.742188 198.136719 165.761719 196.160156 165.726562 L 193.882812 165.671875 L 193.828125 163.570312 C 193.792969 161.933594 193.828125 161.488281 194.023438 161.488281 C 194.148438 161.488281 194.738281 161.84375 195.304688 162.269531 Z M 175.722656 165.921875 C 175.507812 166.117188 172.035156 166.152344 171.839844 165.957031 C 171.484375 165.601562 174.011719 162.804688 175.363281 162.058594 C 175.703125 161.878906 175.71875 161.933594 175.773438 163.839844 C 175.792969 164.925781 175.773438 165.851562 175.71875 165.921875 Z M 192.414062 196.917969 L 185.300781 196.917969 C 181.015625 196.917969 177.445312 196.902344 174.882812 196.875 C 178.597656 201.359375 181.695312 206.238281 183.417969 210.953125 C 183.511719 211.214844 183.609375 211.476562 183.703125 211.738281 C 185.722656 206.304688 188.726562 201.367188 192.414062 196.921875 Z M 192.414062 196.917969 " fill-opacity="1" fill-rule="evenodd"/></g><g clip-path="url(#9c6136d073)"><path fill="#ffffff" d="M 67.472656 163.003906 C 66.417969 163.84375 57.789062 178.71875 57.789062 179.769531 C 57.789062 179.980469 60.738281 180.402344 64.3125 180.683594 C 91.535156 182.71875 123.949219 188.890625 141.628906 195.488281 C 161.765625 202.992188 175.304688 212.746094 180.636719 223.550781 C 181.902344 226.078125 183.234375 228.039062 183.65625 227.898438 C 184.078125 227.757812 185.550781 225.65625 186.882812 223.199219 C 197.898438 203.0625 231.082031 189.382812 285.105469 182.578125 C 291.070312 181.804688 299.066406 180.964844 302.855469 180.683594 C 306.574219 180.402344 309.660156 180.050781 309.660156 179.910156 C 309.660156 179.699219 308.398438 177.3125 306.925781 174.578125 C 305.453125 171.773438 303.488281 168.195312 302.648438 166.511719 C 300.261719 161.949219 300.402344 161.949219 286.160156 162.933594 C 265.882812 164.335938 245.675781 168.476562 230.03125 174.4375 C 207.089844 183.140625 190.882812 197.519531 185.410156 214.007812 C 183.726562 219.058594 183.9375 219.199219 181.199219 211.765625 C 178.042969 203.0625 168.851562 192.121094 159.027344 185.453125 C 143.171875 174.71875 117.144531 166.511719 89.710938 163.632812 C 76.449219 162.230469 68.734375 162.019531 67.472656 163.003906 Z M 67.472656 163.003906 " fill-opacity="1" fill-rule="evenodd"/></g><g fill="#ffffff" fill-opacity="1"><g transform="translate(72.349418, 278.908027)"><g><path d="M 35.78125 -8.90625 C 36.019531 -8.90625 36.140625 -8.804688 36.140625 -8.609375 L 36.140625 -0.359375 C 36.140625 -0.117188 36.019531 0 35.78125 0 L 26.15625 0 L 26.15625 1.1875 C 26.15625 6.28125 24.75 10.320312 21.9375 13.3125 C 19.132812 16.300781 15.378906 17.796875 10.671875 17.796875 C 8.140625 17.796875 5.816406 17.492188 3.703125 16.890625 C 1.597656 16.285156 -0.625 15.203125 -2.96875 13.640625 L 1.484375 6.4375 C 2.785156 7.257812 3.9375 7.828125 4.9375 8.140625 C 5.9375 8.453125 7.132812 8.609375 8.53125 8.609375 C 10.507812 8.609375 12.101562 7.851562 13.3125 6.34375 C 14.519531 4.84375 15.125 2.945312 15.125 0.65625 L 15.125 -36.6875 L 26.15625 -36.6875 L 26.15625 -8.90625 Z M 35.78125 -8.90625 "/></g></g></g><g fill="#ffffff" fill-opacity="1"><g transform="translate(106.282648, 278.908027)"><g><path d="M 27.859375 -8.90625 L 27.859375 -18.953125 C 27.859375 -21.515625 27.40625 -23.378906 26.5 -24.546875 C 25.59375 -25.710938 24.164062 -26.296875 22.21875 -26.296875 C 20.53125 -26.296875 19.160156 -25.585938 18.109375 -24.171875 C 17.054688 -22.765625 16.53125 -20.976562 16.53125 -18.8125 C 16.53125 -12.207031 19.519531 -8.90625 25.5 -8.90625 Z M -0.359375 0 C -0.597656 0 -0.71875 -0.117188 -0.71875 -0.359375 L -0.71875 -8.609375 C -0.71875 -8.804688 -0.597656 -8.90625 -0.359375 -8.90625 L 8.75 -8.90625 C 7.738281 -9.820312 6.890625 -11.132812 6.203125 -12.84375 C 5.515625 -14.550781 5.171875 -16.6875 5.171875 -19.25 C 5.171875 -22.144531 5.941406 -24.863281 7.484375 -27.40625 C 9.023438 -29.945312 11.101562 -31.941406 13.71875 -33.390625 C 16.34375 -34.835938 19.148438 -35.5625 22.140625 -35.5625 C 25.492188 -35.5625 28.441406 -34.867188 30.984375 -33.484375 C 33.523438 -32.097656 35.476562 -30.160156 36.84375 -27.671875 C 38.207031 -25.191406 38.890625 -22.441406 38.890625 -19.421875 L 38.890625 -8.90625 L 49.203125 -8.90625 L 49.203125 -22.609375 C 49.203125 -28.878906 47.65625 -33.691406 44.5625 -37.046875 C 41.476562 -40.398438 36.972656 -42.078125 31.046875 -42.078125 C 27.347656 -42.078125 24.09375 -41.851562 21.28125 -41.40625 C 18.476562 -40.957031 15.726562 -40.238281 13.03125 -39.25 L 10.53125 -47.71875 C 13.925781 -48.90625 17.265625 -49.742188 20.546875 -50.234375 C 23.828125 -50.722656 27.328125 -50.96875 31.046875 -50.96875 C 40.785156 -50.96875 48.082031 -48.625 52.9375 -43.9375 C 57.800781 -39.25 60.234375 -32.453125 60.234375 -23.546875 L 60.234375 0 Z M -0.359375 0 "/></g></g></g><g fill="#ffffff" fill-opacity="1"><g transform="translate(170.602692, 278.908027)"><g><path d="M 27.71875 -8.90625 C 27.957031 -8.90625 28.078125 -8.804688 28.078125 -8.609375 L 28.078125 -0.359375 C 28.078125 -0.117188 27.957031 0 27.71875 0 L 7.421875 0 L 7.421875 -56.296875 L 18.453125 -56.296875 L 18.453125 -8.90625 Z M 27.71875 -8.90625 "/></g></g></g><g fill="#ffffff" fill-opacity="1"><g transform="translate(196.468937, 278.908027)"><g><path d="M 8 -8.90625 C 6.664062 -11.9375 6 -15.335938 6 -19.109375 C 6 -21.253906 6.359375 -23.566406 7.078125 -26.046875 C 7.804688 -28.535156 8.703125 -30.671875 9.765625 -32.453125 C 12.148438 -33.828125 14.6875 -34.875 17.375 -35.59375 C 20.070312 -36.320312 22.429688 -36.6875 24.453125 -36.6875 C 27.828125 -36.6875 30.894531 -35.960938 33.65625 -34.515625 C 36.425781 -33.066406 38.566406 -31.019531 40.078125 -28.375 C 41.597656 -25.738281 42.359375 -22.671875 42.359375 -19.171875 C 42.359375 -16.472656 41.898438 -13.929688 40.984375 -11.546875 C 41.878906 -10.578125 42.898438 -9.894531 44.046875 -9.5 C 45.191406 -9.101562 46.632812 -8.90625 48.375 -8.90625 L 48.765625 -8.90625 C 49.003906 -8.90625 49.125 -8.804688 49.125 -8.609375 L 49.125 -0.359375 C 49.125 -0.117188 49.003906 0 48.765625 0 L 48.375 0 C 45.769531 0 43.507812 -0.363281 41.59375 -1.09375 C 39.675781 -1.832031 37.859375 -3.117188 36.140625 -4.953125 C 34.265625 -3.316406 32.109375 -2.082031 29.671875 -1.25 C 27.234375 -0.414062 24.722656 0 22.140625 0 L -0.359375 0 C -0.597656 0 -0.71875 -0.117188 -0.71875 -0.359375 L -0.71875 -8.609375 C -0.71875 -8.804688 -0.597656 -8.90625 -0.359375 -8.90625 Z M 16.25 -17.546875 C 16.25 -15.035156 16.8125 -12.15625 17.9375 -8.90625 L 20.734375 -8.90625 C 23.722656 -8.90625 26.222656 -9.90625 28.234375 -11.90625 C 30.253906 -13.90625 31.265625 -16.328125 31.265625 -19.171875 C 31.265625 -21.804688 30.625 -23.898438 29.34375 -25.453125 C 28.0625 -27.003906 26.359375 -27.78125 24.234375 -27.78125 C 22.015625 -27.78125 19.710938 -27.09375 17.328125 -25.71875 C 16.609375 -23.113281 16.25 -20.390625 16.25 -17.546875 Z M 16.25 -17.546875 "/></g></g></g><g fill="#ffffff" fill-opacity="1"><g transform="translate(243.352738, 278.908027)"><g><path d="M -0.359375 0 C -0.597656 0 -0.71875 -0.117188 -0.71875 -0.359375 L -0.71875 -8.609375 C -0.71875 -8.804688 -0.597656 -8.90625 -0.359375 -8.90625 L 8.90625 -8.90625 L 8.90625 -56.296875 L 19.9375 -56.296875 L 19.9375 0 Z M -0.359375 0 "/></g></g></g><g fill="#ffffff" fill-opacity="1"><g transform="translate(269.218983, 278.908027)"><g><path d="M 7.421875 -56.296875 L 18.453125 -56.296875 L 18.453125 0 L 7.421875 0 Z M 7.421875 -56.296875 "/></g></g></g><g fill="#ffffff" fill-opacity="1"><g transform="translate(104.667618, 320.394677)"><g><path d="M 3.265625 -3.375 L 2.859375 -2.359375 C 2.703125 -1.972656 2.640625 -1.679688 2.671875 -1.484375 C 2.703125 -1.296875 2.769531 -1.15625 2.875 -1.0625 C 2.976562 -0.976562 3.078125 -0.894531 3.171875 -0.8125 C 3.273438 -0.726562 3.328125 -0.609375 3.328125 -0.453125 C 3.328125 -0.273438 3.25 -0.15625 3.09375 -0.09375 C 2.945312 -0.03125 2.765625 0 2.546875 0 L 0.90625 0 C 0.632812 0 0.414062 -0.03125 0.25 -0.09375 C 0.09375 -0.15625 0.015625 -0.269531 0.015625 -0.4375 C 0.015625 -0.601562 0.0664062 -0.726562 0.171875 -0.8125 C 0.285156 -0.894531 0.425781 -0.976562 0.59375 -1.0625 C 0.757812 -1.15625 0.929688 -1.296875 1.109375 -1.484375 C 1.285156 -1.679688 1.453125 -1.972656 1.609375 -2.359375 L 5.140625 -11.25 C 5.253906 -11.539062 5.285156 -11.765625 5.234375 -11.921875 C 5.179688 -12.078125 5.097656 -12.195312 4.984375 -12.28125 C 4.867188 -12.375 4.753906 -12.46875 4.640625 -12.5625 C 4.535156 -12.664062 4.484375 -12.796875 4.484375 -12.953125 C 4.484375 -13.265625 4.675781 -13.421875 5.0625 -13.421875 L 7.015625 -13.421875 C 7.304688 -13.421875 7.507812 -13.28125 7.625 -13 L 11.8125 -2.390625 C 11.96875 -1.992188 12.125 -1.703125 12.28125 -1.515625 C 12.445312 -1.328125 12.597656 -1.1875 12.734375 -1.09375 C 12.878906 -1 13 -0.914062 13.09375 -0.84375 C 13.1875 -0.769531 13.234375 -0.648438 13.234375 -0.484375 C 13.234375 -0.296875 13.15625 -0.164062 13 -0.09375 C 12.851562 -0.03125 12.601562 0 12.25 0 L 9.59375 0 C 9.03125 0 8.75 -0.144531 8.75 -0.4375 C 8.75 -0.613281 8.804688 -0.75 8.921875 -0.84375 C 9.035156 -0.9375 9.15625 -1.03125 9.28125 -1.125 C 9.40625 -1.21875 9.488281 -1.359375 9.53125 -1.546875 C 9.582031 -1.742188 9.53125 -2.023438 9.375 -2.390625 L 9.015625 -3.359375 C 8.960938 -3.492188 8.90625 -3.601562 8.84375 -3.6875 C 8.78125 -3.769531 8.660156 -3.828125 8.484375 -3.859375 C 8.304688 -3.890625 8.039062 -3.910156 7.6875 -3.921875 C 7.332031 -3.929688 6.828125 -3.9375 6.171875 -3.9375 C 5.492188 -3.9375 4.96875 -3.929688 4.59375 -3.921875 C 4.226562 -3.910156 3.957031 -3.890625 3.78125 -3.859375 C 3.613281 -3.828125 3.492188 -3.769531 3.421875 -3.6875 C 3.359375 -3.613281 3.304688 -3.507812 3.265625 -3.375 Z M 6.1875 -4.953125 C 6.914062 -4.953125 7.429688 -4.957031 7.734375 -4.96875 C 8.035156 -4.976562 8.203125 -5.019531 8.234375 -5.09375 C 8.265625 -5.164062 8.25 -5.28125 8.1875 -5.4375 L 6.109375 -10.71875 L 4.0625 -5.4375 C 4 -5.28125 3.984375 -5.164062 4.015625 -5.09375 C 4.054688 -5.019531 4.238281 -4.976562 4.5625 -4.96875 C 4.882812 -4.957031 5.425781 -4.953125 6.1875 -4.953125 Z M 6.1875 -4.953125 "/></g></g></g><g fill="#ffffff" fill-opacity="1"><g transform="translate(127.457829, 320.394677)"><g><path d="M 10 -3.703125 C 10.164062 -3.660156 10.269531 -3.578125 10.3125 -3.453125 C 10.351562 -3.328125 10.367188 -3.15625 10.359375 -2.9375 C 10.328125 -2.4375 10.285156 -2.015625 10.234375 -1.671875 C 10.179688 -1.328125 10.117188 -1.015625 10.046875 -0.734375 C 9.984375 -0.484375 9.851562 -0.296875 9.65625 -0.171875 C 9.46875 -0.0546875 9.070312 0 8.46875 0 L 1.703125 0 C 1.023438 0 0.6875 -0.148438 0.6875 -0.453125 C 0.6875 -0.640625 0.738281 -0.773438 0.84375 -0.859375 C 0.945312 -0.941406 1.066406 -1.023438 1.203125 -1.109375 C 1.347656 -1.191406 1.476562 -1.304688 1.59375 -1.453125 C 1.71875 -1.597656 1.800781 -1.8125 1.84375 -2.09375 C 1.863281 -2.207031 1.875 -2.320312 1.875 -2.4375 C 1.882812 -2.5625 1.890625 -2.726562 1.890625 -2.9375 L 1.890625 -10.421875 C 1.890625 -10.984375 1.832031 -11.394531 1.71875 -11.65625 C 1.601562 -11.925781 1.46875 -12.113281 1.3125 -12.21875 C 1.15625 -12.332031 1.019531 -12.429688 0.90625 -12.515625 C 0.789062 -12.609375 0.734375 -12.753906 0.734375 -12.953125 C 0.734375 -13.140625 0.804688 -13.265625 0.953125 -13.328125 C 1.109375 -13.390625 1.375 -13.421875 1.75 -13.421875 L 4.3125 -13.421875 C 4.988281 -13.421875 5.328125 -13.265625 5.328125 -12.953125 C 5.328125 -12.753906 5.265625 -12.609375 5.140625 -12.515625 C 5.023438 -12.429688 4.882812 -12.332031 4.71875 -12.21875 C 4.5625 -12.113281 4.421875 -11.925781 4.296875 -11.65625 C 4.179688 -11.394531 4.125 -10.984375 4.125 -10.421875 L 4.125 -1.953125 C 4.125 -1.628906 4.222656 -1.394531 4.421875 -1.25 C 4.617188 -1.101562 5.050781 -1.03125 5.71875 -1.03125 L 6.75 -1.046875 C 7.25 -1.046875 7.640625 -1.113281 7.921875 -1.25 C 8.210938 -1.394531 8.445312 -1.609375 8.625 -1.890625 C 8.800781 -2.171875 8.988281 -2.523438 9.1875 -2.953125 C 9.332031 -3.285156 9.46875 -3.5 9.59375 -3.59375 C 9.726562 -3.6875 9.863281 -3.722656 10 -3.703125 Z M 10 -3.703125 "/></g></g></g><g fill="#ffffff" fill-opacity="1"><g transform="translate(147.603141, 320.394677)"><g/></g></g><g fill="#ffffff" fill-opacity="1"><g transform="translate(160.79123, 320.394677)"><g><path d="M 14.890625 -11.078125 L 15.171875 -2.609375 C 15.179688 -2.203125 15.242188 -1.898438 15.359375 -1.703125 C 15.484375 -1.503906 15.625 -1.351562 15.78125 -1.25 C 15.9375 -1.144531 16.070312 -1.046875 16.1875 -0.953125 C 16.300781 -0.859375 16.359375 -0.703125 16.359375 -0.484375 C 16.359375 -0.296875 16.28125 -0.164062 16.125 -0.09375 C 15.976562 -0.03125 15.742188 0 15.421875 0 L 12.90625 0 C 12.539062 0 12.28125 -0.03125 12.125 -0.09375 C 11.96875 -0.164062 11.890625 -0.296875 11.890625 -0.484375 C 11.890625 -0.679688 11.941406 -0.832031 12.046875 -0.9375 C 12.160156 -1.039062 12.289062 -1.144531 12.4375 -1.25 C 12.582031 -1.351562 12.707031 -1.503906 12.8125 -1.703125 C 12.925781 -1.910156 12.972656 -2.210938 12.953125 -2.609375 L 12.78125 -10.578125 L 8.515625 -1.28125 C 8.453125 -1.15625 8.378906 -1.054688 8.296875 -0.984375 C 8.210938 -0.910156 8.082031 -0.859375 7.90625 -0.828125 C 7.707031 -0.773438 7.554688 -0.773438 7.453125 -0.828125 C 7.347656 -0.890625 7.273438 -0.972656 7.234375 -1.078125 L 3.296875 -10.453125 L 3.03125 -2.359375 C 3.019531 -2.003906 3.054688 -1.734375 3.140625 -1.546875 C 3.234375 -1.359375 3.34375 -1.210938 3.46875 -1.109375 C 3.59375 -1.003906 3.707031 -0.910156 3.8125 -0.828125 C 3.914062 -0.742188 3.96875 -0.617188 3.96875 -0.453125 C 3.96875 -0.273438 3.894531 -0.15625 3.75 -0.09375 C 3.613281 -0.03125 3.398438 0 3.109375 0 L 1.609375 0 C 1.023438 0 0.734375 -0.148438 0.734375 -0.453125 C 0.734375 -0.609375 0.785156 -0.726562 0.890625 -0.8125 C 0.992188 -0.90625 1.117188 -1.003906 1.265625 -1.109375 C 1.421875 -1.210938 1.554688 -1.359375 1.671875 -1.546875 C 1.785156 -1.734375 1.847656 -2.003906 1.859375 -2.359375 L 2.21875 -11.078125 C 2.238281 -11.410156 2.195312 -11.664062 2.09375 -11.84375 C 2 -12.019531 1.882812 -12.160156 1.75 -12.265625 C 1.613281 -12.378906 1.492188 -12.484375 1.390625 -12.578125 C 1.285156 -12.679688 1.234375 -12.816406 1.234375 -12.984375 C 1.234375 -13.148438 1.289062 -13.265625 1.40625 -13.328125 C 1.53125 -13.390625 1.742188 -13.421875 2.046875 -13.421875 L 3.9375 -13.421875 C 4.226562 -13.421875 4.4375 -13.28125 4.5625 -13 L 8.4375 -3.8125 L 12.65625 -13 C 12.78125 -13.28125 12.988281 -13.421875 13.28125 -13.421875 L 15.046875 -13.421875 C 15.359375 -13.421875 15.578125 -13.390625 15.703125 -13.328125 C 15.828125 -13.265625 15.890625 -13.148438 15.890625 -12.984375 C 15.890625 -12.816406 15.832031 -12.679688 15.71875 -12.578125 C 15.613281 -12.484375 15.492188 -12.390625 15.359375 -12.296875 C 15.234375 -12.203125 15.117188 -12.066406 15.015625 -11.890625 C 14.921875 -11.710938 14.878906 -11.441406 14.890625 -11.078125 Z M 14.890625 -11.078125 "/></g></g></g><g fill="#ffffff" fill-opacity="1"><g transform="translate(187.261297, 320.394677)"><g><path d="M 3.265625 -3.375 L 2.859375 -2.359375 C 2.703125 -1.972656 2.640625 -1.679688 2.671875 -1.484375 C 2.703125 -1.296875 2.769531 -1.15625 2.875 -1.0625 C 2.976562 -0.976562 3.078125 -0.894531 3.171875 -0.8125 C 3.273438 -0.726562 3.328125 -0.609375 3.328125 -0.453125 C 3.328125 -0.273438 3.25 -0.15625 3.09375 -0.09375 C 2.945312 -0.03125 2.765625 0 2.546875 0 L 0.90625 0 C 0.632812 0 0.414062 -0.03125 0.25 -0.09375 C 0.09375 -0.15625 0.015625 -0.269531 0.015625 -0.4375 C 0.015625 -0.601562 0.0664062 -0.726562 0.171875 -0.8125 C 0.285156 -0.894531 0.425781 -0.976562 0.59375 -1.0625 C 0.757812 -1.15625 0.929688 -1.296875 1.109375 -1.484375 C 1.285156 -1.679688 1.453125 -1.972656 1.609375 -2.359375 L 5.140625 -11.25 C 5.253906 -11.539062 5.285156 -11.765625 5.234375 -11.921875 C 5.179688 -12.078125 5.097656 -12.195312 4.984375 -12.28125 C 4.867188 -12.375 4.753906 -12.46875 4.640625 -12.5625 C 4.535156 -12.664062 4.484375 -12.796875 4.484375 -12.953125 C 4.484375 -13.265625 4.675781 -13.421875 5.0625 -13.421875 L 7.015625 -13.421875 C 7.304688 -13.421875 7.507812 -13.28125 7.625 -13 L 11.8125 -2.390625 C 11.96875 -1.992188 12.125 -1.703125 12.28125 -1.515625 C 12.445312 -1.328125 12.597656 -1.1875 12.734375 -1.09375 C 12.878906 -1 13 -0.914062 13.09375 -0.84375 C 13.1875 -0.769531 13.234375 -0.648438 13.234375 -0.484375 C 13.234375 -0.296875 13.15625 -0.164062 13 -0.09375 C 12.851562 -0.03125 12.601562 0 12.25 0 L 9.59375 0 C 9.03125 0 8.75 -0.144531 8.75 -0.4375 C 8.75 -0.613281 8.804688 -0.75 8.921875 -0.84375 C 9.035156 -0.9375 9.15625 -1.03125 9.28125 -1.125 C 9.40625 -1.21875 9.488281 -1.359375 9.53125 -1.546875 C 9.582031 -1.742188 9.53125 -2.023438 9.375 -2.390625 L 9.015625 -3.359375 C 8.960938 -3.492188 8.90625 -3.601562 8.84375 -3.6875 C 8.78125 -3.769531 8.660156 -3.828125 8.484375 -3.859375 C 8.304688 -3.890625 8.039062 -3.910156 7.6875 -3.921875 C 7.332031 -3.929688 6.828125 -3.9375 6.171875 -3.9375 C 5.492188 -3.9375 4.96875 -3.929688 4.59375 -3.921875 C 4.226562 -3.910156 3.957031 -3.890625 3.78125 -3.859375 C 3.613281 -3.828125 3.492188 -3.769531 3.421875 -3.6875 C 3.359375 -3.613281 3.304688 -3.507812 3.265625 -3.375 Z M 6.1875 -4.953125 C 6.914062 -4.953125 7.429688 -4.957031 7.734375 -4.96875 C 8.035156 -4.976562 8.203125 -5.019531 8.234375 -5.09375 C 8.265625 -5.164062 8.25 -5.28125 8.1875 -5.4375 L 6.109375 -10.71875 L 4.0625 -5.4375 C 4 -5.28125 3.984375 -5.164062 4.015625 -5.09375 C 4.054688 -5.019531 4.238281 -4.976562 4.5625 -4.96875 C 4.882812 -4.957031 5.425781 -4.953125 6.1875 -4.953125 Z M 6.1875 -4.953125 "/></g></g></g><g fill="#ffffff" fill-opacity="1"><g transform="translate(210.051504, 320.394677)"><g><path d="M 13.1875 -10.421875 L 13.1875 -2.984375 C 13.1875 -2.421875 13.242188 -2.007812 13.359375 -1.75 C 13.472656 -1.488281 13.609375 -1.300781 13.765625 -1.1875 C 13.921875 -1.082031 14.054688 -0.984375 14.171875 -0.890625 C 14.285156 -0.804688 14.34375 -0.660156 14.34375 -0.453125 C 14.34375 -0.285156 14.269531 -0.164062 14.125 -0.09375 C 13.976562 -0.03125 13.71875 0 13.34375 0 L 10.75 0 C 10.09375 0 9.765625 -0.148438 9.765625 -0.453125 C 9.765625 -0.660156 9.820312 -0.804688 9.9375 -0.890625 C 10.0625 -0.984375 10.195312 -1.082031 10.34375 -1.1875 C 10.5 -1.300781 10.640625 -1.488281 10.765625 -1.75 C 10.890625 -2.007812 10.953125 -2.421875 10.953125 -2.984375 L 10.953125 -5.734375 C 10.953125 -5.953125 10.929688 -6.117188 10.890625 -6.234375 C 10.847656 -6.347656 10.726562 -6.429688 10.53125 -6.484375 C 10.332031 -6.535156 10.003906 -6.566406 9.546875 -6.578125 C 9.085938 -6.585938 8.441406 -6.59375 7.609375 -6.59375 C 6.742188 -6.59375 6.070312 -6.585938 5.59375 -6.578125 C 5.113281 -6.566406 4.769531 -6.535156 4.5625 -6.484375 C 4.351562 -6.429688 4.226562 -6.347656 4.1875 -6.234375 C 4.144531 -6.117188 4.125 -5.953125 4.125 -5.734375 L 4.125 -2.984375 C 4.125 -2.421875 4.179688 -2.007812 4.296875 -1.75 C 4.410156 -1.488281 4.546875 -1.300781 4.703125 -1.1875 C 4.867188 -1.082031 5.007812 -0.984375 5.125 -0.890625 C 5.238281 -0.804688 5.296875 -0.660156 5.296875 -0.453125 C 5.296875 -0.285156 5.21875 -0.164062 5.0625 -0.09375 C 4.90625 -0.03125 4.644531 0 4.28125 0 L 1.703125 0 C 1.023438 0 0.6875 -0.148438 0.6875 -0.453125 C 0.6875 -0.660156 0.742188 -0.804688 0.859375 -0.890625 C 0.984375 -0.984375 1.125 -1.082031 1.28125 -1.1875 C 1.445312 -1.300781 1.585938 -1.488281 1.703125 -1.75 C 1.828125 -2.007812 1.890625 -2.421875 1.890625 -2.984375 L 1.890625 -10.421875 C 1.890625 -10.984375 1.832031 -11.394531 1.71875 -11.65625 C 1.601562 -11.925781 1.46875 -12.113281 1.3125 -12.21875 C 1.15625 -12.332031 1.019531 -12.429688 0.90625 -12.515625 C 0.789062 -12.609375 0.734375 -12.753906 0.734375 -12.953125 C 0.734375 -13.140625 0.804688 -13.265625 0.953125 -13.328125 C 1.109375 -13.390625 1.375 -13.421875 1.75 -13.421875 L 4.3125 -13.421875 C 4.988281 -13.421875 5.328125 -13.265625 5.328125 -12.953125 C 5.328125 -12.753906 5.265625 -12.609375 5.140625 -12.515625 C 5.023438 -12.429688 4.882812 -12.332031 4.71875 -12.21875 C 4.5625 -12.113281 4.421875 -11.925781 4.296875 -11.65625 C 4.179688 -11.394531 4.125 -10.984375 4.125 -10.421875 L 4.125 -8.515625 C 4.125 -8.296875 4.144531 -8.128906 4.1875 -8.015625 C 4.226562 -7.898438 4.351562 -7.816406 4.5625 -7.765625 C 4.769531 -7.710938 5.113281 -7.679688 5.59375 -7.671875 C 6.070312 -7.660156 6.75 -7.65625 7.625 -7.65625 C 8.457031 -7.65625 9.097656 -7.660156 9.546875 -7.671875 C 10.003906 -7.679688 10.332031 -7.710938 10.53125 -7.765625 C 10.726562 -7.816406 10.847656 -7.898438 10.890625 -8.015625 C 10.929688 -8.128906 10.953125 -8.296875 10.953125 -8.515625 L 10.953125 -10.421875 C 10.953125 -10.984375 10.894531 -11.394531 10.78125 -11.65625 C 10.664062 -11.925781 10.53125 -12.113281 10.375 -12.21875 C 10.21875 -12.332031 10.082031 -12.429688 9.96875 -12.515625 C 9.851562 -12.609375 9.796875 -12.753906 9.796875 -12.953125 C 9.796875 -13.140625 9.867188 -13.265625 10.015625 -13.328125 C 10.171875 -13.390625 10.429688 -13.421875 10.796875 -13.421875 L 13.375 -13.421875 C 14.039062 -13.421875 14.375 -13.265625 14.375 -12.953125 C 14.375 -12.753906 14.3125 -12.609375 14.1875 -12.515625 C 14.070312 -12.429688 13.9375 -12.332031 13.78125 -12.21875 C 13.625 -12.113281 13.484375 -11.925781 13.359375 -11.65625 C 13.242188 -11.394531 13.1875 -10.984375 13.1875 -10.421875 Z M 13.1875 -10.421875 "/></g></g></g><g fill="#ffffff" fill-opacity="1"><g transform="translate(234.470815, 320.394677)"><g><path d="M 1.890625 -2.984375 L 1.890625 -10.421875 C 1.890625 -10.984375 1.832031 -11.394531 1.71875 -11.65625 C 1.601562 -11.925781 1.46875 -12.113281 1.3125 -12.21875 C 1.15625 -12.332031 1.019531 -12.429688 0.90625 -12.515625 C 0.789062 -12.609375 0.734375 -12.753906 0.734375 -12.953125 C 0.734375 -13.140625 0.804688 -13.265625 0.953125 -13.328125 C 1.109375 -13.390625 1.375 -13.421875 1.75 -13.421875 L 4.3125 -13.421875 C 4.988281 -13.421875 5.328125 -13.265625 5.328125 -12.953125 C 5.328125 -12.753906 5.265625 -12.609375 5.140625 -12.515625 C 5.023438 -12.429688 4.882812 -12.332031 4.71875 -12.21875 C 4.5625 -12.113281 4.421875 -11.925781 4.296875 -11.65625 C 4.179688 -11.394531 4.125 -10.984375 4.125 -10.421875 L 4.125 -2.984375 C 4.125 -2.421875 4.179688 -2.007812 4.296875 -1.75 C 4.410156 -1.488281 4.546875 -1.300781 4.703125 -1.1875 C 4.867188 -1.082031 5.007812 -0.984375 5.125 -0.890625 C 5.238281 -0.804688 5.296875 -0.660156 5.296875 -0.453125 C 5.296875 -0.285156 5.21875 -0.164062 5.0625 -0.09375 C 4.90625 -0.03125 4.644531 0 4.28125 0 L 1.703125 0 C 1.023438 0 0.6875 -0.148438 0.6875 -0.453125 C 0.6875 -0.660156 0.742188 -0.804688 0.859375 -0.890625 C 0.984375 -0.984375 1.125 -1.082031 1.28125 -1.1875 C 1.445312 -1.300781 1.585938 -1.488281 1.703125 -1.75 C 1.828125 -2.007812 1.890625 -2.421875 1.890625 -2.984375 Z M 1.890625 -2.984375 "/></g></g></g><g fill="#ffffff" fill-opacity="1"><g transform="translate(249.843819, 320.394677)"><g><path d="M 9.359375 -4.984375 L 10.921875 -2.21875 C 11.109375 -1.90625 11.289062 -1.664062 11.46875 -1.5 C 11.65625 -1.34375 11.820312 -1.21875 11.96875 -1.125 C 12.113281 -1.039062 12.234375 -0.953125 12.328125 -0.859375 C 12.421875 -0.773438 12.46875 -0.640625 12.46875 -0.453125 C 12.46875 -0.148438 12.175781 0 11.59375 0 L 9.140625 0 C 8.835938 0 8.601562 -0.03125 8.4375 -0.09375 C 8.28125 -0.164062 8.203125 -0.300781 8.203125 -0.5 C 8.203125 -0.632812 8.25 -0.753906 8.34375 -0.859375 C 8.445312 -0.960938 8.546875 -1.070312 8.640625 -1.1875 C 8.734375 -1.300781 8.785156 -1.441406 8.796875 -1.609375 C 8.804688 -1.785156 8.726562 -2.015625 8.5625 -2.296875 L 7.34375 -4.5 C 6.988281 -4.46875 6.601562 -4.453125 6.1875 -4.453125 L 4.5 -4.453125 C 4.25 -4.453125 4.125 -4.320312 4.125 -4.0625 L 4.125 -2.984375 C 4.125 -2.421875 4.179688 -2.007812 4.296875 -1.75 C 4.410156 -1.488281 4.546875 -1.300781 4.703125 -1.1875 C 4.867188 -1.082031 5.007812 -0.984375 5.125 -0.890625 C 5.238281 -0.804688 5.296875 -0.660156 5.296875 -0.453125 C 5.296875 -0.285156 5.21875 -0.164062 5.0625 -0.09375 C 4.90625 -0.03125 4.644531 0 4.28125 0 L 1.703125 0 C 1.023438 0 0.6875 -0.148438 0.6875 -0.453125 C 0.6875 -0.660156 0.742188 -0.804688 0.859375 -0.890625 C 0.984375 -0.984375 1.125 -1.082031 1.28125 -1.1875 C 1.445312 -1.300781 1.585938 -1.488281 1.703125 -1.75 C 1.828125 -2.007812 1.890625 -2.421875 1.890625 -2.984375 L 1.890625 -10.484375 C 1.890625 -10.691406 1.882812 -10.851562 1.875 -10.96875 C 1.875 -11.09375 1.863281 -11.210938 1.84375 -11.328125 C 1.800781 -11.617188 1.71875 -11.832031 1.59375 -11.96875 C 1.476562 -12.113281 1.347656 -12.226562 1.203125 -12.3125 C 1.066406 -12.394531 0.945312 -12.484375 0.84375 -12.578125 C 0.738281 -12.671875 0.6875 -12.796875 0.6875 -12.953125 C 0.6875 -13.265625 1.023438 -13.421875 1.703125 -13.421875 L 5.546875 -13.421875 C 6.929688 -13.421875 8.085938 -13.210938 9.015625 -12.796875 C 9.953125 -12.390625 10.65625 -11.835938 11.125 -11.140625 C 11.59375 -10.453125 11.828125 -9.664062 11.828125 -8.78125 C 11.828125 -6.957031 11.003906 -5.691406 9.359375 -4.984375 Z M 6.109375 -5.46875 C 7.097656 -5.46875 7.90625 -5.703125 8.53125 -6.171875 C 9.15625 -6.640625 9.46875 -7.398438 9.46875 -8.453125 C 9.46875 -9.222656 9.304688 -9.90625 8.984375 -10.5 C 8.660156 -11.09375 8.195312 -11.5625 7.59375 -11.90625 C 6.988281 -12.25 6.285156 -12.421875 5.484375 -12.421875 C 4.910156 -12.421875 4.539062 -12.382812 4.375 -12.3125 C 4.207031 -12.25 4.125 -12.113281 4.125 -11.90625 L 4.125 -6.046875 C 4.125 -5.835938 4.25 -5.6875 4.5 -5.59375 C 4.75 -5.507812 5.285156 -5.46875 6.109375 -5.46875 Z M 6.109375 -5.46875 "/></g></g></g></svg>