<svg xmlns="http://www.w3.org/2000/svg" xmlns:xlink="http://www.w3.org/1999/xlink" width="500" zoomAndPan="magnify" viewBox="0 0 375 374.999991" height="500" preserveAspectRatio="xMidYMid meet" version="1.0"><defs><g/></defs><g fill="#ffffff" fill-opacity="1"><g transform="translate(76.123102, 195.494496)"><g><path d="M 35.78125 -8.90625 C 36.019531 -8.90625 36.140625 -8.804688 36.140625 -8.609375 L 36.140625 -0.359375 C 36.140625 -0.117188 36.019531 0 35.78125 0 L 26.15625 0 L 26.15625 1.1875 C 26.15625 6.28125 24.75 10.320312 21.9375 13.3125 C 19.132812 16.300781 15.378906 17.796875 10.671875 17.796875 C 8.140625 17.796875 5.816406 17.492188 3.703125 16.890625 C 1.597656 16.285156 -0.625 15.203125 -2.96875 13.640625 L 1.484375 6.4375 C 2.785156 7.257812 3.9375 7.828125 4.9375 8.140625 C 5.9375 8.453125 7.132812 8.609375 8.53125 8.609375 C 10.507812 8.609375 12.101562 7.851562 13.3125 6.34375 C 14.519531 4.84375 15.125 2.945312 15.125 0.65625 L 15.125 -36.6875 L 26.15625 -36.6875 L 26.15625 -8.90625 Z M 35.78125 -8.90625 "/></g></g></g><g fill="#ffffff" fill-opacity="1"><g transform="translate(110.056332, 195.494496)"><g><path d="M 27.859375 -8.90625 L 27.859375 -18.953125 C 27.859375 -21.515625 27.40625 -23.378906 26.5 -24.546875 C 25.59375 -25.710938 24.164062 -26.296875 22.21875 -26.296875 C 20.53125 -26.296875 19.160156 -25.585938 18.109375 -24.171875 C 17.054688 -22.765625 16.53125 -20.976562 16.53125 -18.8125 C 16.53125 -12.207031 19.519531 -8.90625 25.5 -8.90625 Z M -0.359375 0 C -0.597656 0 -0.71875 -0.117188 -0.71875 -0.359375 L -0.71875 -8.609375 C -0.71875 -8.804688 -0.597656 -8.90625 -0.359375 -8.90625 L 8.75 -8.90625 C 7.738281 -9.820312 6.890625 -11.132812 6.203125 -12.84375 C 5.515625 -14.550781 5.171875 -16.6875 5.171875 -19.25 C 5.171875 -22.144531 5.941406 -24.863281 7.484375 -27.40625 C 9.023438 -29.945312 11.101562 -31.941406 13.71875 -33.390625 C 16.34375 -34.835938 19.148438 -35.5625 22.140625 -35.5625 C 25.492188 -35.5625 28.441406 -34.867188 30.984375 -33.484375 C 33.523438 -32.097656 35.476562 -30.160156 36.84375 -27.671875 C 38.207031 -25.191406 38.890625 -22.441406 38.890625 -19.421875 L 38.890625 -8.90625 L 49.203125 -8.90625 L 49.203125 -22.609375 C 49.203125 -28.878906 47.65625 -33.691406 44.5625 -37.046875 C 41.476562 -40.398438 36.972656 -42.078125 31.046875 -42.078125 C 27.347656 -42.078125 24.09375 -41.851562 21.28125 -41.40625 C 18.476562 -40.957031 15.726562 -40.238281 13.03125 -39.25 L 10.53125 -47.71875 C 13.925781 -48.90625 17.265625 -49.742188 20.546875 -50.234375 C 23.828125 -50.722656 27.328125 -50.96875 31.046875 -50.96875 C 40.785156 -50.96875 48.082031 -48.625 52.9375 -43.9375 C 57.800781 -39.25 60.234375 -32.453125 60.234375 -23.546875 L 60.234375 0 Z M -0.359375 0 "/></g></g></g><g fill="#ffffff" fill-opacity="1"><g transform="translate(174.376376, 195.494496)"><g><path d="M 27.71875 -8.90625 C 27.957031 -8.90625 28.078125 -8.804688 28.078125 -8.609375 L 28.078125 -0.359375 C 28.078125 -0.117188 27.957031 0 27.71875 0 L 7.421875 0 L 7.421875 -56.296875 L 18.453125 -56.296875 L 18.453125 -8.90625 Z M 27.71875 -8.90625 "/></g></g></g><g fill="#ffffff" fill-opacity="1"><g transform="translate(200.242621, 195.494496)"><g><path d="M 8 -8.90625 C 6.664062 -11.9375 6 -15.335938 6 -19.109375 C 6 -21.253906 6.359375 -23.566406 7.078125 -26.046875 C 7.804688 -28.535156 8.703125 -30.671875 9.765625 -32.453125 C 12.148438 -33.828125 14.6875 -34.875 17.375 -35.59375 C 20.070312 -36.320312 22.429688 -36.6875 24.453125 -36.6875 C 27.828125 -36.6875 30.894531 -35.960938 33.65625 -34.515625 C 36.425781 -33.066406 38.566406 -31.019531 40.078125 -28.375 C 41.597656 -25.738281 42.359375 -22.671875 42.359375 -19.171875 C 42.359375 -16.472656 41.898438 -13.929688 40.984375 -11.546875 C 41.878906 -10.578125 42.898438 -9.894531 44.046875 -9.5 C 45.191406 -9.101562 46.632812 -8.90625 48.375 -8.90625 L 48.765625 -8.90625 C 49.003906 -8.90625 49.125 -8.804688 49.125 -8.609375 L 49.125 -0.359375 C 49.125 -0.117188 49.003906 0 48.765625 0 L 48.375 0 C 45.769531 0 43.507812 -0.363281 41.59375 -1.09375 C 39.675781 -1.832031 37.859375 -3.117188 36.140625 -4.953125 C 34.265625 -3.316406 32.109375 -2.082031 29.671875 -1.25 C 27.234375 -0.414062 24.722656 0 22.140625 0 L -0.359375 0 C -0.597656 0 -0.71875 -0.117188 -0.71875 -0.359375 L -0.71875 -8.609375 C -0.71875 -8.804688 -0.597656 -8.90625 -0.359375 -8.90625 Z M 16.25 -17.546875 C 16.25 -15.035156 16.8125 -12.15625 17.9375 -8.90625 L 20.734375 -8.90625 C 23.722656 -8.90625 26.222656 -9.90625 28.234375 -11.90625 C 30.253906 -13.90625 31.265625 -16.328125 31.265625 -19.171875 C 31.265625 -21.804688 30.625 -23.898438 29.34375 -25.453125 C 28.0625 -27.003906 26.359375 -27.78125 24.234375 -27.78125 C 22.015625 -27.78125 19.710938 -27.09375 17.328125 -25.71875 C 16.609375 -23.113281 16.25 -20.390625 16.25 -17.546875 Z M 16.25 -17.546875 "/></g></g></g><g fill="#ffffff" fill-opacity="1"><g transform="translate(247.126421, 195.494496)"><g><path d="M -0.359375 0 C -0.597656 0 -0.71875 -0.117188 -0.71875 -0.359375 L -0.71875 -8.609375 C -0.71875 -8.804688 -0.597656 -8.90625 -0.359375 -8.90625 L 8.90625 -8.90625 L 8.90625 -56.296875 L 19.9375 -56.296875 L 19.9375 0 Z M -0.359375 0 "/></g></g></g><g fill="#ffffff" fill-opacity="1"><g transform="translate(272.992666, 195.494496)"><g><path d="M 7.421875 -56.296875 L 18.453125 -56.296875 L 18.453125 0 L 7.421875 0 Z M 7.421875 -56.296875 "/></g></g></g><g fill="#ffffff" fill-opacity="1"><g transform="translate(108.441296, 236.981161)"><g><path d="M 3.265625 -3.375 L 2.859375 -2.359375 C 2.703125 -1.972656 2.640625 -1.679688 2.671875 -1.484375 C 2.703125 -1.296875 2.769531 -1.15625 2.875 -1.0625 C 2.976562 -0.976562 3.078125 -0.894531 3.171875 -0.8125 C 3.273438 -0.726562 3.328125 -0.609375 3.328125 -0.453125 C 3.328125 -0.273438 3.25 -0.15625 3.09375 -0.09375 C 2.945312 -0.03125 2.765625 0 2.546875 0 L 0.90625 0 C 0.632812 0 0.414062 -0.03125 0.25 -0.09375 C 0.09375 -0.15625 0.015625 -0.269531 0.015625 -0.4375 C 0.015625 -0.601562 0.0664062 -0.726562 0.171875 -0.8125 C 0.285156 -0.894531 0.425781 -0.976562 0.59375 -1.0625 C 0.757812 -1.15625 0.929688 -1.296875 1.109375 -1.484375 C 1.285156 -1.679688 1.453125 -1.972656 1.609375 -2.359375 L 5.140625 -11.25 C 5.253906 -11.539062 5.285156 -11.765625 5.234375 -11.921875 C 5.179688 -12.078125 5.097656 -12.195312 4.984375 -12.28125 C 4.867188 -12.375 4.753906 -12.46875 4.640625 -12.5625 C 4.535156 -12.664062 4.484375 -12.796875 4.484375 -12.953125 C 4.484375 -13.265625 4.675781 -13.421875 5.0625 -13.421875 L 7.015625 -13.421875 C 7.304688 -13.421875 7.507812 -13.28125 7.625 -13 L 11.8125 -2.390625 C 11.96875 -1.992188 12.125 -1.703125 12.28125 -1.515625 C 12.445312 -1.328125 12.597656 -1.1875 12.734375 -1.09375 C 12.878906 -1 13 -0.914062 13.09375 -0.84375 C 13.1875 -0.769531 13.234375 -0.648438 13.234375 -0.484375 C 13.234375 -0.296875 13.15625 -0.164062 13 -0.09375 C 12.851562 -0.03125 12.601562 0 12.25 0 L 9.59375 0 C 9.03125 0 8.75 -0.144531 8.75 -0.4375 C 8.75 -0.613281 8.804688 -0.75 8.921875 -0.84375 C 9.035156 -0.9375 9.15625 -1.03125 9.28125 -1.125 C 9.40625 -1.21875 9.488281 -1.359375 9.53125 -1.546875 C 9.582031 -1.742188 9.53125 -2.023438 9.375 -2.390625 L 9.015625 -3.359375 C 8.960938 -3.492188 8.90625 -3.601562 8.84375 -3.6875 C 8.78125 -3.769531 8.660156 -3.828125 8.484375 -3.859375 C 8.304688 -3.890625 8.039062 -3.910156 7.6875 -3.921875 C 7.332031 -3.929688 6.828125 -3.9375 6.171875 -3.9375 C 5.492188 -3.9375 4.96875 -3.929688 4.59375 -3.921875 C 4.226562 -3.910156 3.957031 -3.890625 3.78125 -3.859375 C 3.613281 -3.828125 3.492188 -3.769531 3.421875 -3.6875 C 3.359375 -3.613281 3.304688 -3.507812 3.265625 -3.375 Z M 6.1875 -4.953125 C 6.914062 -4.953125 7.429688 -4.957031 7.734375 -4.96875 C 8.035156 -4.976562 8.203125 -5.019531 8.234375 -5.09375 C 8.265625 -5.164062 8.25 -5.28125 8.1875 -5.4375 L 6.109375 -10.71875 L 4.0625 -5.4375 C 4 -5.28125 3.984375 -5.164062 4.015625 -5.09375 C 4.054688 -5.019531 4.238281 -4.976562 4.5625 -4.96875 C 4.882812 -4.957031 5.425781 -4.953125 6.1875 -4.953125 Z M 6.1875 -4.953125 "/></g></g></g><g fill="#ffffff" fill-opacity="1"><g transform="translate(131.231507, 236.981161)"><g><path d="M 10 -3.703125 C 10.164062 -3.660156 10.269531 -3.578125 10.3125 -3.453125 C 10.351562 -3.328125 10.367188 -3.15625 10.359375 -2.9375 C 10.328125 -2.4375 10.285156 -2.015625 10.234375 -1.671875 C 10.179688 -1.328125 10.117188 -1.015625 10.046875 -0.734375 C 9.984375 -0.484375 9.851562 -0.296875 9.65625 -0.171875 C 9.46875 -0.0546875 9.070312 0 8.46875 0 L 1.703125 0 C 1.023438 0 0.6875 -0.148438 0.6875 -0.453125 C 0.6875 -0.640625 0.738281 -0.773438 0.84375 -0.859375 C 0.945312 -0.941406 1.066406 -1.023438 1.203125 -1.109375 C 1.347656 -1.191406 1.476562 -1.304688 1.59375 -1.453125 C 1.71875 -1.597656 1.800781 -1.8125 1.84375 -2.09375 C 1.863281 -2.207031 1.875 -2.320312 1.875 -2.4375 C 1.882812 -2.5625 1.890625 -2.726562 1.890625 -2.9375 L 1.890625 -10.421875 C 1.890625 -10.984375 1.832031 -11.394531 1.71875 -11.65625 C 1.601562 -11.925781 1.46875 -12.113281 1.3125 -12.21875 C 1.15625 -12.332031 1.019531 -12.429688 0.90625 -12.515625 C 0.789062 -12.609375 0.734375 -12.753906 0.734375 -12.953125 C 0.734375 -13.140625 0.804688 -13.265625 0.953125 -13.328125 C 1.109375 -13.390625 1.375 -13.421875 1.75 -13.421875 L 4.3125 -13.421875 C 4.988281 -13.421875 5.328125 -13.265625 5.328125 -12.953125 C 5.328125 -12.753906 5.265625 -12.609375 5.140625 -12.515625 C 5.023438 -12.429688 4.882812 -12.332031 4.71875 -12.21875 C 4.5625 -12.113281 4.421875 -11.925781 4.296875 -11.65625 C 4.179688 -11.394531 4.125 -10.984375 4.125 -10.421875 L 4.125 -1.953125 C 4.125 -1.628906 4.222656 -1.394531 4.421875 -1.25 C 4.617188 -1.101562 5.050781 -1.03125 5.71875 -1.03125 L 6.75 -1.046875 C 7.25 -1.046875 7.640625 -1.113281 7.921875 -1.25 C 8.210938 -1.394531 8.445312 -1.609375 8.625 -1.890625 C 8.800781 -2.171875 8.988281 -2.523438 9.1875 -2.953125 C 9.332031 -3.285156 9.46875 -3.5 9.59375 -3.59375 C 9.726562 -3.6875 9.863281 -3.722656 10 -3.703125 Z M 10 -3.703125 "/></g></g></g><g fill="#ffffff" fill-opacity="1"><g transform="translate(151.376819, 236.981161)"><g/></g></g><g fill="#ffffff" fill-opacity="1"><g transform="translate(164.564909, 236.981161)"><g><path d="M 14.890625 -11.078125 L 15.171875 -2.609375 C 15.179688 -2.203125 15.242188 -1.898438 15.359375 -1.703125 C 15.484375 -1.503906 15.625 -1.351562 15.78125 -1.25 C 15.9375 -1.144531 16.070312 -1.046875 16.1875 -0.953125 C 16.300781 -0.859375 16.359375 -0.703125 16.359375 -0.484375 C 16.359375 -0.296875 16.28125 -0.164062 16.125 -0.09375 C 15.976562 -0.03125 15.742188 0 15.421875 0 L 12.90625 0 C 12.539062 0 12.28125 -0.03125 12.125 -0.09375 C 11.96875 -0.164062 11.890625 -0.296875 11.890625 -0.484375 C 11.890625 -0.679688 11.941406 -0.832031 12.046875 -0.9375 C 12.160156 -1.039062 12.289062 -1.144531 12.4375 -1.25 C 12.582031 -1.351562 12.707031 -1.503906 12.8125 -1.703125 C 12.925781 -1.910156 12.972656 -2.210938 12.953125 -2.609375 L 12.78125 -10.578125 L 8.515625 -1.28125 C 8.453125 -1.15625 8.378906 -1.054688 8.296875 -0.984375 C 8.210938 -0.910156 8.082031 -0.859375 7.90625 -0.828125 C 7.707031 -0.773438 7.554688 -0.773438 7.453125 -0.828125 C 7.347656 -0.890625 7.273438 -0.972656 7.234375 -1.078125 L 3.296875 -10.453125 L 3.03125 -2.359375 C 3.019531 -2.003906 3.054688 -1.734375 3.140625 -1.546875 C 3.234375 -1.359375 3.34375 -1.210938 3.46875 -1.109375 C 3.59375 -1.003906 3.707031 -0.910156 3.8125 -0.828125 C 3.914062 -0.742188 3.96875 -0.617188 3.96875 -0.453125 C 3.96875 -0.273438 3.894531 -0.15625 3.75 -0.09375 C 3.613281 -0.03125 3.398438 0 3.109375 0 L 1.609375 0 C 1.023438 0 0.734375 -0.148438 0.734375 -0.453125 C 0.734375 -0.609375 0.785156 -0.726562 0.890625 -0.8125 C 0.992188 -0.90625 1.117188 -1.003906 1.265625 -1.109375 C 1.421875 -1.210938 1.554688 -1.359375 1.671875 -1.546875 C 1.785156 -1.734375 1.847656 -2.003906 1.859375 -2.359375 L 2.21875 -11.078125 C 2.238281 -11.410156 2.195312 -11.664062 2.09375 -11.84375 C 2 -12.019531 1.882812 -12.160156 1.75 -12.265625 C 1.613281 -12.378906 1.492188 -12.484375 1.390625 -12.578125 C 1.285156 -12.679688 1.234375 -12.816406 1.234375 -12.984375 C 1.234375 -13.148438 1.289062 -13.265625 1.40625 -13.328125 C 1.53125 -13.390625 1.742188 -13.421875 2.046875 -13.421875 L 3.9375 -13.421875 C 4.226562 -13.421875 4.4375 -13.28125 4.5625 -13 L 8.4375 -3.8125 L 12.65625 -13 C 12.78125 -13.28125 12.988281 -13.421875 13.28125 -13.421875 L 15.046875 -13.421875 C 15.359375 -13.421875 15.578125 -13.390625 15.703125 -13.328125 C 15.828125 -13.265625 15.890625 -13.148438 15.890625 -12.984375 C 15.890625 -12.816406 15.832031 -12.679688 15.71875 -12.578125 C 15.613281 -12.484375 15.492188 -12.390625 15.359375 -12.296875 C 15.234375 -12.203125 15.117188 -12.066406 15.015625 -11.890625 C 14.921875 -11.710938 14.878906 -11.441406 14.890625 -11.078125 Z M 14.890625 -11.078125 "/></g></g></g><g fill="#ffffff" fill-opacity="1"><g transform="translate(191.034975, 236.981161)"><g><path d="M 3.265625 -3.375 L 2.859375 -2.359375 C 2.703125 -1.972656 2.640625 -1.679688 2.671875 -1.484375 C 2.703125 -1.296875 2.769531 -1.15625 2.875 -1.0625 C 2.976562 -0.976562 3.078125 -0.894531 3.171875 -0.8125 C 3.273438 -0.726562 3.328125 -0.609375 3.328125 -0.453125 C 3.328125 -0.273438 3.25 -0.15625 3.09375 -0.09375 C 2.945312 -0.03125 2.765625 0 2.546875 0 L 0.90625 0 C 0.632812 0 0.414062 -0.03125 0.25 -0.09375 C 0.09375 -0.15625 0.015625 -0.269531 0.015625 -0.4375 C 0.015625 -0.601562 0.0664062 -0.726562 0.171875 -0.8125 C 0.285156 -0.894531 0.425781 -0.976562 0.59375 -1.0625 C 0.757812 -1.15625 0.929688 -1.296875 1.109375 -1.484375 C 1.285156 -1.679688 1.453125 -1.972656 1.609375 -2.359375 L 5.140625 -11.25 C 5.253906 -11.539062 5.285156 -11.765625 5.234375 -11.921875 C 5.179688 -12.078125 5.097656 -12.195312 4.984375 -12.28125 C 4.867188 -12.375 4.753906 -12.46875 4.640625 -12.5625 C 4.535156 -12.664062 4.484375 -12.796875 4.484375 -12.953125 C 4.484375 -13.265625 4.675781 -13.421875 5.0625 -13.421875 L 7.015625 -13.421875 C 7.304688 -13.421875 7.507812 -13.28125 7.625 -13 L 11.8125 -2.390625 C 11.96875 -1.992188 12.125 -1.703125 12.28125 -1.515625 C 12.445312 -1.328125 12.597656 -1.1875 12.734375 -1.09375 C 12.878906 -1 13 -0.914062 13.09375 -0.84375 C 13.1875 -0.769531 13.234375 -0.648438 13.234375 -0.484375 C 13.234375 -0.296875 13.15625 -0.164062 13 -0.09375 C 12.851562 -0.03125 12.601562 0 12.25 0 L 9.59375 0 C 9.03125 0 8.75 -0.144531 8.75 -0.4375 C 8.75 -0.613281 8.804688 -0.75 8.921875 -0.84375 C 9.035156 -0.9375 9.15625 -1.03125 9.28125 -1.125 C 9.40625 -1.21875 9.488281 -1.359375 9.53125 -1.546875 C 9.582031 -1.742188 9.53125 -2.023438 9.375 -2.390625 L 9.015625 -3.359375 C 8.960938 -3.492188 8.90625 -3.601562 8.84375 -3.6875 C 8.78125 -3.769531 8.660156 -3.828125 8.484375 -3.859375 C 8.304688 -3.890625 8.039062 -3.910156 7.6875 -3.921875 C 7.332031 -3.929688 6.828125 -3.9375 6.171875 -3.9375 C 5.492188 -3.9375 4.96875 -3.929688 4.59375 -3.921875 C 4.226562 -3.910156 3.957031 -3.890625 3.78125 -3.859375 C 3.613281 -3.828125 3.492188 -3.769531 3.421875 -3.6875 C 3.359375 -3.613281 3.304688 -3.507812 3.265625 -3.375 Z M 6.1875 -4.953125 C 6.914062 -4.953125 7.429688 -4.957031 7.734375 -4.96875 C 8.035156 -4.976562 8.203125 -5.019531 8.234375 -5.09375 C 8.265625 -5.164062 8.25 -5.28125 8.1875 -5.4375 L 6.109375 -10.71875 L 4.0625 -5.4375 C 4 -5.28125 3.984375 -5.164062 4.015625 -5.09375 C 4.054688 -5.019531 4.238281 -4.976562 4.5625 -4.96875 C 4.882812 -4.957031 5.425781 -4.953125 6.1875 -4.953125 Z M 6.1875 -4.953125 "/></g></g></g><g fill="#ffffff" fill-opacity="1"><g transform="translate(213.825182, 236.981161)"><g><path d="M 13.1875 -10.421875 L 13.1875 -2.984375 C 13.1875 -2.421875 13.242188 -2.007812 13.359375 -1.75 C 13.472656 -1.488281 13.609375 -1.300781 13.765625 -1.1875 C 13.921875 -1.082031 14.054688 -0.984375 14.171875 -0.890625 C 14.285156 -0.804688 14.34375 -0.660156 14.34375 -0.453125 C 14.34375 -0.285156 14.269531 -0.164062 14.125 -0.09375 C 13.976562 -0.03125 13.71875 0 13.34375 0 L 10.75 0 C 10.09375 0 9.765625 -0.148438 9.765625 -0.453125 C 9.765625 -0.660156 9.820312 -0.804688 9.9375 -0.890625 C 10.0625 -0.984375 10.195312 -1.082031 10.34375 -1.1875 C 10.5 -1.300781 10.640625 -1.488281 10.765625 -1.75 C 10.890625 -2.007812 10.953125 -2.421875 10.953125 -2.984375 L 10.953125 -5.734375 C 10.953125 -5.953125 10.929688 -6.117188 10.890625 -6.234375 C 10.847656 -6.347656 10.726562 -6.429688 10.53125 -6.484375 C 10.332031 -6.535156 10.003906 -6.566406 9.546875 -6.578125 C 9.085938 -6.585938 8.441406 -6.59375 7.609375 -6.59375 C 6.742188 -6.59375 6.070312 -6.585938 5.59375 -6.578125 C 5.113281 -6.566406 4.769531 -6.535156 4.5625 -6.484375 C 4.351562 -6.429688 4.226562 -6.347656 4.1875 -6.234375 C 4.144531 -6.117188 4.125 -5.953125 4.125 -5.734375 L 4.125 -2.984375 C 4.125 -2.421875 4.179688 -2.007812 4.296875 -1.75 C 4.410156 -1.488281 4.546875 -1.300781 4.703125 -1.1875 C 4.867188 -1.082031 5.007812 -0.984375 5.125 -0.890625 C 5.238281 -0.804688 5.296875 -0.660156 5.296875 -0.453125 C 5.296875 -0.285156 5.21875 -0.164062 5.0625 -0.09375 C 4.90625 -0.03125 4.644531 0 4.28125 0 L 1.703125 0 C 1.023438 0 0.6875 -0.148438 0.6875 -0.453125 C 0.6875 -0.660156 0.742188 -0.804688 0.859375 -0.890625 C 0.984375 -0.984375 1.125 -1.082031 1.28125 -1.1875 C 1.445312 -1.300781 1.585938 -1.488281 1.703125 -1.75 C 1.828125 -2.007812 1.890625 -2.421875 1.890625 -2.984375 L 1.890625 -10.421875 C 1.890625 -10.984375 1.832031 -11.394531 1.71875 -11.65625 C 1.601562 -11.925781 1.46875 -12.113281 1.3125 -12.21875 C 1.15625 -12.332031 1.019531 -12.429688 0.90625 -12.515625 C 0.789062 -12.609375 0.734375 -12.753906 0.734375 -12.953125 C 0.734375 -13.140625 0.804688 -13.265625 0.953125 -13.328125 C 1.109375 -13.390625 1.375 -13.421875 1.75 -13.421875 L 4.3125 -13.421875 C 4.988281 -13.421875 5.328125 -13.265625 5.328125 -12.953125 C 5.328125 -12.753906 5.265625 -12.609375 5.140625 -12.515625 C 5.023438 -12.429688 4.882812 -12.332031 4.71875 -12.21875 C 4.5625 -12.113281 4.421875 -11.925781 4.296875 -11.65625 C 4.179688 -11.394531 4.125 -10.984375 4.125 -10.421875 L 4.125 -8.515625 C 4.125 -8.296875 4.144531 -8.128906 4.1875 -8.015625 C 4.226562 -7.898438 4.351562 -7.816406 4.5625 -7.765625 C 4.769531 -7.710938 5.113281 -7.679688 5.59375 -7.671875 C 6.070312 -7.660156 6.75 -7.65625 7.625 -7.65625 C 8.457031 -7.65625 9.097656 -7.660156 9.546875 -7.671875 C 10.003906 -7.679688 10.332031 -7.710938 10.53125 -7.765625 C 10.726562 -7.816406 10.847656 -7.898438 10.890625 -8.015625 C 10.929688 -8.128906 10.953125 -8.296875 10.953125 -8.515625 L 10.953125 -10.421875 C 10.953125 -10.984375 10.894531 -11.394531 10.78125 -11.65625 C 10.664062 -11.925781 10.53125 -12.113281 10.375 -12.21875 C 10.21875 -12.332031 10.082031 -12.429688 9.96875 -12.515625 C 9.851562 -12.609375 9.796875 -12.753906 9.796875 -12.953125 C 9.796875 -13.140625 9.867188 -13.265625 10.015625 -13.328125 C 10.171875 -13.390625 10.429688 -13.421875 10.796875 -13.421875 L 13.375 -13.421875 C 14.039062 -13.421875 14.375 -13.265625 14.375 -12.953125 C 14.375 -12.753906 14.3125 -12.609375 14.1875 -12.515625 C 14.070312 -12.429688 13.9375 -12.332031 13.78125 -12.21875 C 13.625 -12.113281 13.484375 -11.925781 13.359375 -11.65625 C 13.242188 -11.394531 13.1875 -10.984375 13.1875 -10.421875 Z M 13.1875 -10.421875 "/></g></g></g><g fill="#ffffff" fill-opacity="1"><g transform="translate(238.244494, 236.981161)"><g><path d="M 1.890625 -2.984375 L 1.890625 -10.421875 C 1.890625 -10.984375 1.832031 -11.394531 1.71875 -11.65625 C 1.601562 -11.925781 1.46875 -12.113281 1.3125 -12.21875 C 1.15625 -12.332031 1.019531 -12.429688 0.90625 -12.515625 C 0.789062 -12.609375 0.734375 -12.753906 0.734375 -12.953125 C 0.734375 -13.140625 0.804688 -13.265625 0.953125 -13.328125 C 1.109375 -13.390625 1.375 -13.421875 1.75 -13.421875 L 4.3125 -13.421875 C 4.988281 -13.421875 5.328125 -13.265625 5.328125 -12.953125 C 5.328125 -12.753906 5.265625 -12.609375 5.140625 -12.515625 C 5.023438 -12.429688 4.882812 -12.332031 4.71875 -12.21875 C 4.5625 -12.113281 4.421875 -11.925781 4.296875 -11.65625 C 4.179688 -11.394531 4.125 -10.984375 4.125 -10.421875 L 4.125 -2.984375 C 4.125 -2.421875 4.179688 -2.007812 4.296875 -1.75 C 4.410156 -1.488281 4.546875 -1.300781 4.703125 -1.1875 C 4.867188 -1.082031 5.007812 -0.984375 5.125 -0.890625 C 5.238281 -0.804688 5.296875 -0.660156 5.296875 -0.453125 C 5.296875 -0.285156 5.21875 -0.164062 5.0625 -0.09375 C 4.90625 -0.03125 4.644531 0 4.28125 0 L 1.703125 0 C 1.023438 0 0.6875 -0.148438 0.6875 -0.453125 C 0.6875 -0.660156 0.742188 -0.804688 0.859375 -0.890625 C 0.984375 -0.984375 1.125 -1.082031 1.28125 -1.1875 C 1.445312 -1.300781 1.585938 -1.488281 1.703125 -1.75 C 1.828125 -2.007812 1.890625 -2.421875 1.890625 -2.984375 Z M 1.890625 -2.984375 "/></g></g></g><g fill="#ffffff" fill-opacity="1"><g transform="translate(253.617497, 236.981161)"><g><path d="M 9.359375 -4.984375 L 10.921875 -2.21875 C 11.109375 -1.90625 11.289062 -1.664062 11.46875 -1.5 C 11.65625 -1.34375 11.820312 -1.21875 11.96875 -1.125 C 12.113281 -1.039062 12.234375 -0.953125 12.328125 -0.859375 C 12.421875 -0.773438 12.46875 -0.640625 12.46875 -0.453125 C 12.46875 -0.148438 12.175781 0 11.59375 0 L 9.140625 0 C 8.835938 0 8.601562 -0.03125 8.4375 -0.09375 C 8.28125 -0.164062 8.203125 -0.300781 8.203125 -0.5 C 8.203125 -0.632812 8.25 -0.753906 8.34375 -0.859375 C 8.445312 -0.960938 8.546875 -1.070312 8.640625 -1.1875 C 8.734375 -1.300781 8.785156 -1.441406 8.796875 -1.609375 C 8.804688 -1.785156 8.726562 -2.015625 8.5625 -2.296875 L 7.34375 -4.5 C 6.988281 -4.46875 6.601562 -4.453125 6.1875 -4.453125 L 4.5 -4.453125 C 4.25 -4.453125 4.125 -4.320312 4.125 -4.0625 L 4.125 -2.984375 C 4.125 -2.421875 4.179688 -2.007812 4.296875 -1.75 C 4.410156 -1.488281 4.546875 -1.300781 4.703125 -1.1875 C 4.867188 -1.082031 5.007812 -0.984375 5.125 -0.890625 C 5.238281 -0.804688 5.296875 -0.660156 5.296875 -0.453125 C 5.296875 -0.285156 5.21875 -0.164062 5.0625 -0.09375 C 4.90625 -0.03125 4.644531 0 4.28125 0 L 1.703125 0 C 1.023438 0 0.6875 -0.148438 0.6875 -0.453125 C 0.6875 -0.660156 0.742188 -0.804688 0.859375 -0.890625 C 0.984375 -0.984375 1.125 -1.082031 1.28125 -1.1875 C 1.445312 -1.300781 1.585938 -1.488281 1.703125 -1.75 C 1.828125 -2.007812 1.890625 -2.421875 1.890625 -2.984375 L 1.890625 -10.484375 C 1.890625 -10.691406 1.882812 -10.851562 1.875 -10.96875 C 1.875 -11.09375 1.863281 -11.210938 1.84375 -11.328125 C 1.800781 -11.617188 1.71875 -11.832031 1.59375 -11.96875 C 1.476562 -12.113281 1.347656 -12.226562 1.203125 -12.3125 C 1.066406 -12.394531 0.945312 -12.484375 0.84375 -12.578125 C 0.738281 -12.671875 0.6875 -12.796875 0.6875 -12.953125 C 0.6875 -13.265625 1.023438 -13.421875 1.703125 -13.421875 L 5.546875 -13.421875 C 6.929688 -13.421875 8.085938 -13.210938 9.015625 -12.796875 C 9.953125 -12.390625 10.65625 -11.835938 11.125 -11.140625 C 11.59375 -10.453125 11.828125 -9.664062 11.828125 -8.78125 C 11.828125 -6.957031 11.003906 -5.691406 9.359375 -4.984375 Z M 6.109375 -5.46875 C 7.097656 -5.46875 7.90625 -5.703125 8.53125 -6.171875 C 9.15625 -6.640625 9.46875 -7.398438 9.46875 -8.453125 C 9.46875 -9.222656 9.304688 -9.90625 8.984375 -10.5 C 8.660156 -11.09375 8.195312 -11.5625 7.59375 -11.90625 C 6.988281 -12.25 6.285156 -12.421875 5.484375 -12.421875 C 4.910156 -12.421875 4.539062 -12.382812 4.375 -12.3125 C 4.207031 -12.25 4.125 -12.113281 4.125 -11.90625 L 4.125 -6.046875 C 4.125 -5.835938 4.25 -5.6875 4.5 -5.59375 C 4.75 -5.507812 5.285156 -5.46875 6.109375 -5.46875 Z M 6.109375 -5.46875 "/></g></g></g></svg>